<svg xmlns="http://www.w3.org/2000/svg" xmlns:xlink="http://www.w3.org/1999/xlink" viewBox="0 0 855.22 1111.54"><defs><clipPath id="clip-path"><path d="M645.3,401.53a15.54,15.54,0,1,1,0,31.08"/></clipPath><symbol id="Favorite" data-name="Favorite" viewBox="0 0 64 60.97"><path d="M46.7,0c.9,0,1.86.05,2.89.15C55.86.76,63.11,6.5,64,17.5v3.66C63.18,31.69,55.23,44.68,32,61,8.77,44.68.82,31.69,0,21.16V17.5C.88,6.5,8.13.76,14.4.15c1-.1,2-.15,2.9-.15C24.54,0,28,3.13,32,7.87,36,3.13,39.45,0,46.7,0m0,7c-4.17,0-5.9,1.28-9.34,5.37L32,18.76l-5.36-6.39C23.2,8.28,21.46,7,17.3,7c-.68,0-1.43,0-2.22.12C12.19,7.4,7.69,10.48,7,17.8v3.07c.85,9.19,9.25,19.77,25,31.47,15.74-11.7,24.15-22.28,25-31.47V17.8c-.69-7.32-5.19-10.4-8.09-10.68A22.07,22.07,0,0,0,46.7,7Z"/></symbol></defs><title>image1</title><g id="Layer_2" data-name="Layer 2"><g id="Layer_1-2" data-name="Layer 1"><rect width="855.22" height="1111.54" style="fill:#fff"/><polyline points="588.86 761.67 588.86 767.15 637.16 789.28 685.46 767.15 685.46 761.67 637.16 783.81 588.86 761.67"/><polygon points="588.86 767.15 637.16 789.28 685.46 767.15 637.16 750.79 588.86 767.15" style="fill:none;stroke:#000;stroke-miterlimit:10;stroke-width:0.6698459757011506px"/><polygon points="588.86 761.71 637.16 783.84 685.46 761.71 637.16 745.35 588.86 761.71" style="fill:#fff;stroke:#000;stroke-miterlimit:10;stroke-width:0.16746149392528764px;opacity:0.64"/><polyline points="588.86 750.59 588.86 756.06 637.16 778.2 685.46 756.06 685.46 750.59 637.16 772.73 588.86 750.59"/><polygon points="588.86 756.06 637.16 778.2 685.46 756.06 637.16 739.71 588.86 756.06" style="fill:none;stroke:#000;stroke-miterlimit:10;stroke-width:0.6698459757011506px"/><polygon points="588.86 750.62 637.16 772.76 685.46 750.62 637.16 734.27 588.86 750.62" style="fill:#fff;stroke:#000;stroke-miterlimit:10;stroke-width:0.16746149392528764px;opacity:0.64"/><polyline points="588.86 739.71 588.86 745.18 637.16 767.32 685.46 745.18 685.46 739.71 637.16 761.84 588.86 739.71"/><polygon points="588.86 745.18 637.16 767.32 685.46 745.18 637.16 728.83 588.86 745.18" style="fill:none;stroke:#000;stroke-miterlimit:10;stroke-width:0.6698459757011506px"/><polygon points="588.86 739.67 637.16 761.81 685.46 739.67 637.16 723.32 588.86 739.67" style="fill:#fff;stroke:#000;stroke-miterlimit:10;stroke-width:0.16746149392528764px;opacity:0.64"/><path d="M649.54,731.33c-10.09-2.94-23.17-2-31,2.24-8.86,4.77-9.55,12.8.89,18,12.3,6.16,31.79,4.84,40.05-2.76C666.52,742.34,661,734.66,649.54,731.33Zm9,17.25c-7.91,7.28-26.6,8.54-38.38,2.64-10-5-9.34-12.7-.85-17.27,7.52-4.05,20.05-5,29.73-2.15C660,735,665.29,742.35,658.53,748.58Z"/><path d="M647.65,733.05c-8.55-2.49-19.63-1.68-26.28,1.9-7.5,4-8.08,10.84.76,15.26,10.41,5.22,26.92,4.11,33.92-2.33C662,742.37,657.36,735.87,647.65,733.05Zm6.24,14.22c-6.19,5.71-20.82,6.69-30,2.07-7.83-3.92-7.31-10-.67-13.52,5.89-3.17,15.71-3.89,23.28-1.69C655.06,736.63,659.19,742.39,653.89,747.27Z"/><path d="M645.28,735.19c-6.62-1.92-15.19-1.29-20.34,1.48-5.81,3.12-6.27,8.39.58,11.82,8.06,4,20.85,3.17,26.26-1.81C656.41,742.41,652.8,737.38,645.28,735.19Zm4.82,11c-4.79,4.41-16.1,5.18-23.24,1.6-6.05-3-5.66-7.69-.52-10.45,4.56-2.46,12.15-3,18-1.31C651,738,654.2,742.43,650.1,746.2Z"/><path d="M642.76,737.48c-4.56-1.33-10.48-.9-14,1-4,2.16-4.32,5.79.4,8.16,5.56,2.79,14.39,2.19,18.12-1.25C650.45,742.46,648,739,642.76,737.48Zm1.12,7c-2.49,2.29-8.36,2.69-12.06.83-3.14-1.57-2.94-4-.27-5.42a13.66,13.66,0,0,1,9.34-.68C644.34,740.18,646,742.49,643.88,744.45Z"/><path d="M638.91,741a6.43,6.43,0,0,0-4.38.32c-1.25.67-1.35,1.81.12,2.55,1.74.87,4.5.68,5.66-.39C641.31,742.53,640.53,741.45,638.91,741Z" style="fill:#fff"/><polyline points="705.46 758.78 705.46 763.71 748.96 783.65 792.46 763.71 792.46 758.78 748.96 778.72 705.46 758.78"/><polygon points="705.46 763.71 748.96 783.65 792.46 763.71 748.96 748.98 705.46 763.71"/><polygon points="705.46 758.81 748.96 778.75 792.46 758.81 748.96 744.08 705.46 758.81" style="fill:#fff;stroke:#000;stroke-miterlimit:10;stroke-width:0.1508280985991881px"/><polyline points="705.46 748.8 705.46 753.73 748.96 773.67 792.46 753.73 792.46 748.8 748.96 768.74 705.46 748.8"/><polygon points="705.46 753.73 748.96 773.67 792.46 753.73 748.96 739 705.46 753.73"/><polygon points="705.46 748.83 748.96 768.77 792.46 748.83 748.96 734.1 705.46 748.83" style="fill:#fff;stroke:#000;stroke-miterlimit:10;stroke-width:0.1508280985991881px"/><polyline points="705.46 739 705.46 743.93 748.96 763.87 792.46 743.93 792.46 739 748.96 758.94 705.46 739"/><polygon points="705.46 743.93 748.96 763.87 792.46 743.93 748.96 729.2 705.46 743.93"/><polygon points="705.46 738.96 748.96 758.9 792.46 738.96 748.96 724.23 705.46 738.96" style="fill:#fff;stroke:#000;stroke-miterlimit:10;stroke-width:0.1508280985991881px"/><path d="M769,747.22c-7.43,6.85-25,8-36.07,2.49-9.4-4.71-8.78-11.94-.8-16.24,7.07-3.8,18.85-4.66,27.94-2C770.44,734.45,775.4,741.36,769,747.22Z"/><path d="M768.2,747c-7.12,6.57-24,7.7-34.56,2.39-9-4.52-8.42-11.45-.77-15.56,6.77-3.65,18.06-4.47,26.77-1.94C769.55,734.75,774.3,741.37,768.2,747Z" style="fill:none;stroke:#fff;stroke-miterlimit:10;stroke-width:0.1508280985991881px"/><path d="M766,746.36c-6.3,5.8-21.17,6.8-30.55,2.1-8-4-7.44-10.11-.68-13.75,6-3.22,16-4,23.66-1.71C767.15,735.54,771.35,741.4,766,746.36Z" style="fill:none;stroke:#fff;stroke-miterlimit:10;stroke-width:0.1333007116629399px"/><path d="M764,745.81c-5.58,5.14-18.76,6-27.07,1.86-7.05-3.53-6.59-8.95-.6-12.18,5.31-2.85,14.14-3.5,21-1.51C765.08,736.23,768.8,741.42,764,745.81Z" style="fill:none;stroke:#fff;stroke-miterlimit:10;stroke-width:0.11809536037252563px"/><path d="M762.13,745.27c-4.88,4.5-16.39,5.27-23.66,1.64-6.16-3.09-5.75-7.84-.52-10.65,4.64-2.5,12.36-3.06,18.32-1.33C763.05,736.9,766.3,741.43,762.13,745.27Z" style="fill:none;stroke:#fff;stroke-miterlimit:10;stroke-width:0.10321619284015847px"/><path d="M760.61,744.85c-4.31,4-14.5,4.66-20.93,1.44-5.45-2.73-5.09-6.93-.46-9.42,4.1-2.21,10.93-2.71,16.21-1.17C761.43,737.44,764.3,741.45,760.61,744.85Z" style="fill:none;stroke:#fff;stroke-miterlimit:10;stroke-width:0.09132367125730616px"/><path d="M758.05,744.13c-3.37,3.1-11.31,3.63-16.33,1.12-4.25-2.13-4-5.4-.36-7.35,3.2-1.72,8.53-2.11,12.65-.91C758.68,738.35,760.93,741.48,758.05,744.13Z" style="fill:none;stroke:#fff;stroke-miterlimit:10;stroke-width:0.07122630040654244px"/><path d="M755,743.27c-2.24,2.06-7.53,2.42-10.86.75-2.83-1.42-2.65-3.6-.25-4.89a12.41,12.41,0,0,1,8.42-.61C755.43,739.43,756.92,741.51,755,743.27Z" style="fill:none;stroke:#fff;stroke-miterlimit:10;stroke-width:0.04738573723620599px"/><path d="M751.8,742.37c-1,1-3.53,1.13-5.1.35-1.33-.67-1.24-1.69-.11-2.3a5.8,5.8,0,0,1,3.95-.28C752,740.56,752.7,741.54,751.8,742.37Z" style="fill:#fff"/><rect x="510.84" y="728.39" width="4.34" height="52.07"/><rect x="517.66" y="733.96" width="4.34" height="46.49"/><rect x="524.48" y="728.39" width="4.34" height="52.07"/><rect x="535.01" y="728.39" width="4.34" height="52.07" transform="translate(-114.56 96.43) rotate(-9.27)"/><line x1="562.05" y1="786.61" x2="549.91" y2="786.61" style="fill:none;stroke:#000;stroke-linecap:round;stroke-miterlimit:10;stroke-width:0.9890323281288147px"/><line x1="562.04" y1="783.58" x2="549.91" y2="783.57" style="fill:none;stroke:#000;stroke-linecap:round;stroke-miterlimit:10;stroke-width:0.9890323281288147px"/><line x1="562.05" y1="780.52" x2="549.91" y2="780.52" style="fill:none;stroke:#000;stroke-linecap:round;stroke-miterlimit:10;stroke-width:0.9890323281288147px"/><path d="M562,777V731.55a12,12,0,0,0-12-12H504.31a12,12,0,0,0-12,12v45.73a12,12,0,0,0,12,12H550" style="fill:none;stroke:#000;stroke-linecap:round;stroke-linejoin:round"/><line x1="121.5" y1="943.63" x2="109.37" y2="943.63" style="fill:none;stroke:#000;stroke-linecap:round;stroke-miterlimit:10;stroke-width:0.9890323281288147px"/><line x1="121.49" y1="940.6" x2="109.37" y2="940.58" style="fill:none;stroke:#000;stroke-linecap:round;stroke-miterlimit:10;stroke-width:0.9890323281288147px"/><line x1="121.5" y1="937.54" x2="109.37" y2="937.54" style="fill:none;stroke:#000;stroke-linecap:round;stroke-miterlimit:10;stroke-width:0.9890323281288147px"/><path d="M121.49,934V888.57a12,12,0,0,0-12-12H63.76a12,12,0,0,0-12,12V934.3a12,12,0,0,0,12,12h45.73" style="fill:none;stroke:#000;stroke-linecap:round;stroke-linejoin:round"/><path d="M74.81,894.41l-.3-.19c-1.61-1-1.87-1.54-2-2.08v-2.26a9,9,0,0,0,1.57,1.19l.31.2c1.62,1,3.15,2.12,2.52,3.79a.41.41,0,0,0,.24.53l.15,0a.41.41,0,0,0,.39-.27c.92-2.44-1.54-4-2.86-4.79l-.3-.19c-1.64-1-1.88-1.55-2-2.1a.41.41,0,0,0-.8.16.31.31,0,0,0,0,.08v14.24a3.28,3.28,0,0,0-3,0c-1.56.69-2.4,2.19-1.88,3.36s2.19,1.55,3.75.86a2.9,2.9,0,0,0,2-3V893.72a9.44,9.44,0,0,0,1.57,1.2l.31.19c1.62,1,3.15,2.13,2.52,3.79a.43.43,0,0,0,.24.54l.15,0a.41.41,0,0,0,.39-.27C78.59,896.75,76.13,895.23,74.81,894.41Z"/><polygon points="95.83 919.22 95.85 920.82 105.47 921.17 105.44 919.48 95.83 919.22" style="fill:none"/><path d="M106.46,917.86v0l0,1.12,0,2.2,0,1.39.11,7.14v.08c.14,1-1.33,1.86-3.25,1.82s-3.47-.9-3.61-1.91,1.24-1.82,3.1-1.81a5.54,5.54,0,0,1,2.69.64l-.09-6-9.62-.43L96,930.6v.06c.09,1.11-1.19,2-2.86,2s-3.06-.94-3.18-2,1.09-2,2.73-2a4.19,4.19,0,0,1,2.37.67L95,922.08l0-1.29,0-2.06v-1.06a.43.43,0,0,1,.45-.43h0l10.53.15h0A.51.51,0,0,1,106.46,917.86Zm-1,3.32,0-1.7-9.61-.26,0,1.6Z"/><path d="M66.61,925.71c0-.25.11-.51.15-.76a4.27,4.27,0,0,1,1.82-2.88c.63-.43,1.3-.79,2-1.19.38-.23.75-.47,1.15-.73-.16-.24-.3-.44-.43-.65a1.61,1.61,0,0,1,.32-2.15c.94-.75,1.91-1.47,2.91-2.24l3.6,5.15c-1.09.69-2.14,1.4-3.23,2a1.56,1.56,0,0,1-2-.46c-.08-.09-.15-.19-.22-.28-1,.56-1.9,1.09-2.8,1.67a3.86,3.86,0,0,0-1.3,4.65,1.86,1.86,0,0,0,1.73,1.1,13.4,13.4,0,0,0,3.44-.53,23.35,23.35,0,0,1,3.68-.61A3.7,3.7,0,0,1,81.46,931a10.76,10.76,0,0,1,0,3.88l-1.61-.23a13.52,13.52,0,0,0,.1-1.52,11.71,11.71,0,0,0-.26-2.22,1.94,1.94,0,0,0-2-1.48,15.47,15.47,0,0,0-3.81.62,22.16,22.16,0,0,1-3.44.53,3.55,3.55,0,0,1-3.77-3.25c0-.13,0-.26-.08-.4Z"/><path d="M75.47,914.28l16.94-12.66,4.48,6.4L79.21,919.61Z"/><path d="M104.14,905.3l-6.7-9.58a5.87,5.87,0,0,1,9.15,4A5.75,5.75,0,0,1,104.14,905.3Z"/><path d="M96.15,896.63l6.71,9.58a4.76,4.76,0,0,1-2.3,1,15.64,15.64,0,0,1-2.27,0,.66.66,0,0,1-.42-.28q-2-2.85-4-5.73a.64.64,0,0,1-.14-.41A5.76,5.76,0,0,1,96.15,896.63Z"/><line x1="310.16" y1="943.63" x2="298.03" y2="943.63" style="fill:none;stroke:#000;stroke-linecap:round;stroke-miterlimit:10;stroke-width:0.9890323281288147px"/><line x1="310.15" y1="940.6" x2="298.03" y2="940.58" style="fill:none;stroke:#000;stroke-linecap:round;stroke-miterlimit:10;stroke-width:0.9890323281288147px"/><line x1="310.16" y1="937.54" x2="298.03" y2="937.54" style="fill:none;stroke:#000;stroke-linecap:round;stroke-miterlimit:10;stroke-width:0.9890323281288147px"/><path d="M310.15,934V888.57a12,12,0,0,0-12-12H252.42a12,12,0,0,0-12,12V934.3a12,12,0,0,0,12,12h45.73" style="fill:none;stroke:#000;stroke-linecap:round;stroke-linejoin:round"/><path d="M265.21,898.24a25.23,25.23,0,0,0-5,.52,2.39,2.39,0,0,1-1.07-4.65,27.06,27.06,0,0,1,7.67-.62,27.58,27.58,0,0,1,7.57,1.51,28.29,28.29,0,0,1,18.44,21.41,25.85,25.85,0,0,1,.34,7.8c-.12,1.06-.28,2.12-.47,3.16a2.44,2.44,0,0,1-2.23,2.07,2.35,2.35,0,0,1-2.48-1.72,2.93,2.93,0,0,1,0-1.35,22.7,22.7,0,0,0-2.16-15.52,22.94,22.94,0,0,0-15.57-12A21.76,21.76,0,0,0,265.21,898.24Z"/><path d="M265.35,905a16.77,16.77,0,0,1,16.21,13.62,16.16,16.16,0,0,1-1,9.27,2.47,2.47,0,0,1-3.25,1.32,2.34,2.34,0,0,1-1.27-3.11,11.84,11.84,0,0,0-15.32-15.45,2.44,2.44,0,0,1-3.22-1.28,2.47,2.47,0,0,1,1.5-3.22A17.17,17.17,0,0,1,265.35,905Z"/><path d="M270.6,921.83a5.59,5.59,0,1,1-5.54-5.6A5.6,5.6,0,0,1,270.6,921.83Z"/><path d="M267.56,919.61h0v1.47l0,2.23v0c0,.33-.42.59-1,.57s-1.09-.28-1.13-.59.38-.57,1-.57a1.72,1.72,0,0,1,.83.2l0-1.87-3-.14,0,2.65v0c0,.34-.37.62-.89.61s-1-.3-1-.64.34-.61.85-.62a1.32,1.32,0,0,1,.74.21l0-2.24v-1.37h0a.13.13,0,0,1,.14-.13h0l3.28,0h0A.17.17,0,0,1,267.56,919.61Zm-.31,1v-.53l-3-.08v.5Z" style="fill:#fff"/><text transform="translate(221.08 94.93)" style="font-size:52.10880661010742px;font-family:MyriadPro-Regular, Myriad Pro">Music Lib<tspan x="204.26" y="0" style="letter-spacing:-0.004985061871472871em">r</tspan><tspan x="221.04" y="0">a</tspan><tspan x="246.16" y="0" style="letter-spacing:0.02500027269377748em">r</tspan><tspan x="264.5" y="0">y i</tspan><tspan x="312.28" y="0" style="letter-spacing:-0.00599706691305007em">c</tspan><tspan x="335.31" y="0">ons</tspan></text><rect x="71.87" y="244.37" width="40.81" height="4.3" rx="2.15"/><rect x="71.87" y="230.92" width="40.81" height="4.3" rx="2.15"/><rect x="71.87" y="217.46" width="40.81" height="4.3" rx="2.15"/><rect x="58.81" y="243.48" width="6.09" height="6.09" rx="3.04" style="fill:none;stroke:#000;stroke-miterlimit:10"/><rect x="58.81" y="230.02" width="6.09" height="6.09" rx="3.04" style="fill:none;stroke:#000;stroke-miterlimit:10"/><rect x="58.81" y="216.57" width="6.09" height="6.09" rx="3.04" style="fill:none;stroke:#000;stroke-miterlimit:10"/><line x1="120.62" y1="265.26" x2="108.48" y2="265.26" style="fill:none;stroke:#000;stroke-linecap:round;stroke-miterlimit:10;stroke-width:0.9890323281288147px"/><line x1="120.6" y1="262.23" x2="108.48" y2="262.21" style="fill:none;stroke:#000;stroke-linecap:round;stroke-miterlimit:10;stroke-width:0.9890323281288147px"/><line x1="120.62" y1="259.17" x2="108.48" y2="259.17" style="fill:none;stroke:#000;stroke-linecap:round;stroke-miterlimit:10;stroke-width:0.9890323281288147px"/><path d="M120.6,255.63V210.2a12,12,0,0,0-12-12H62.87a12,12,0,0,0-12,12v45.73a12,12,0,0,0,12,12H108.6" style="fill:none;stroke:#000;stroke-linecap:round;stroke-linejoin:round"/><line x1="780.23" y1="629.8" x2="768.09" y2="629.8" style="fill:none;stroke:#000;stroke-linecap:round;stroke-miterlimit:10;stroke-width:0.9890323281288147px"/><line x1="780.21" y1="626.77" x2="768.09" y2="626.75" style="fill:none;stroke:#000;stroke-linecap:round;stroke-miterlimit:10;stroke-width:0.9890323281288147px"/><line x1="780.23" y1="623.7" x2="768.09" y2="623.7" style="fill:none;stroke:#000;stroke-linecap:round;stroke-miterlimit:10;stroke-width:0.9890323281288147px"/><path d="M782.36,625.38V580a12,12,0,0,0-12-12H724.63a12,12,0,0,0-12,12v45.73a12,12,0,0,0,12,12h45.73" style="fill:none;stroke:#000;stroke-linecap:round;stroke-linejoin:round"/><line x1="559.23" y1="254.8" x2="547.09" y2="254.8" style="fill:none;stroke:#000;stroke-linecap:round;stroke-miterlimit:10;stroke-width:0.9890323281288147px"/><line x1="559.21" y1="251.77" x2="547.09" y2="251.75" style="fill:none;stroke:#000;stroke-linecap:round;stroke-miterlimit:10;stroke-width:0.9890323281288147px"/><line x1="559.23" y1="248.7" x2="547.09" y2="248.7" style="fill:none;stroke:#000;stroke-linecap:round;stroke-miterlimit:10;stroke-width:0.9890323281288147px"/><path d="M559.21,245.17V199.74a12,12,0,0,0-12-12H501.48a12,12,0,0,0-12,12v45.73a12,12,0,0,0,12,12h45.73" style="fill:none;stroke:#000;stroke-linecap:round;stroke-linejoin:round"/><path d="M530.73,214.64l-.75-.47c-4-2.55-4.63-3.8-5-5.14v-5.62a23.55,23.55,0,0,0,3.89,3l.78.49c4,2.49,7.8,5.27,6.25,9.39a1,1,0,0,0,.6,1.33.92.92,0,0,0,.36.07,1,1,0,0,0,1-.67c2.28-6-3.82-9.84-7.09-11.87l-.76-.48c-4.05-2.59-4.65-3.85-5-5.21a1,1,0,0,0-1.26-.73,1,1,0,0,0-.74,1.13,1.18,1.18,0,0,0,0,.2v35.34a8.2,8.2,0,0,0-7.51-.15c-3.86,1.72-5.94,5.46-4.66,8.35s5.45,3.86,9.32,2.14c3.53-1.56,5.57-4.82,4.91-7.58V213a23.55,23.55,0,0,0,3.89,3l.77.48c4,2.5,7.81,5.27,6.26,9.41a1,1,0,0,0,.6,1.32.92.92,0,0,0,.36.07,1,1,0,0,0,1-.67C540.11,220.46,534,216.67,530.73,214.64Z"/><line x1="669.97" y1="254.8" x2="657.83" y2="254.8" style="fill:none;stroke:#000;stroke-linecap:round;stroke-miterlimit:10;stroke-width:0.9890323281288147px"/><line x1="669.95" y1="251.77" x2="657.83" y2="251.75" style="fill:none;stroke:#000;stroke-linecap:round;stroke-miterlimit:10;stroke-width:0.9890323281288147px"/><line x1="669.97" y1="248.7" x2="657.83" y2="248.7" style="fill:none;stroke:#000;stroke-linecap:round;stroke-miterlimit:10;stroke-width:0.9890323281288147px"/><path d="M670,245.17V199.74a12,12,0,0,0-12-12H612.22a12,12,0,0,0-12,12v45.73a12,12,0,0,0,12,12H658" style="fill:none;stroke:#000;stroke-linecap:round;stroke-linejoin:round"/><path d="M641.47,214.64l-.75-.47c-4-2.55-4.63-3.8-5-5.14v-5.62a23.4,23.4,0,0,0,3.88,3l.79.49c4,2.49,7.8,5.27,6.25,9.39a1,1,0,0,0,.6,1.33.92.92,0,0,0,.36.07,1,1,0,0,0,1-.67c2.28-6-3.82-9.84-7.09-11.87l-.76-.48c-4.06-2.59-4.66-3.85-5-5.21a1,1,0,0,0-1.26-.73,1,1,0,0,0-.74,1.13.65.65,0,0,0,0,.2v35.34a8.2,8.2,0,0,0-7.51-.15c-3.86,1.72-5.95,5.46-4.67,8.35s5.46,3.86,9.32,2.14c3.54-1.56,5.58-4.82,4.92-7.58V213a23.13,23.13,0,0,0,3.89,3l.77.48c4,2.5,7.81,5.27,6.26,9.41a1,1,0,0,0,.6,1.32.92.92,0,0,0,.36.07,1,1,0,0,0,1-.67C650.85,220.46,644.75,216.67,641.47,214.64Z"/><path d="M685.27,210.83c-35.36-17.61-65,17.6-100.37,0v-.42c35.38,17.61,65-17.6,100.37,0Z"/><path d="M685.27,216.82c-35.36-17.6-65,17.61-100.37,0v-.42c35.38,17.61,65-17.6,100.37,0Z"/><path d="M685.27,222.81c-35.36-17.6-65,17.61-100.37,0v-.41c35.38,17.61,65-17.6,100.37,0Z"/><path d="M685.27,228.8c-35.36-17.6-65,17.61-100.37,0v-.41c35.38,17.61,65-17.6,100.37,0Z"/><path d="M685.27,234.8c-35.36-17.61-65,17.6-100.37,0v-.42c35.38,17.61,65-17.6,100.37,0Z"/><circle cx="524.34" cy="417.53" r="18.71"/><circle cx="524.34" cy="417.53" r="3.01" style="fill:none;stroke:#fff;stroke-miterlimit:10"/><rect x="499.34" y="394.78" width="45.49" height="45.49" style="fill:none;stroke:#000;stroke-linecap:round;stroke-linejoin:round;stroke-width:1.383339980191054px"/><rect x="501.6" y="394.78" width="45.49" height="45.49" style="fill:none;stroke:#000;stroke-linecap:round;stroke-linejoin:round;stroke-width:1.383339980191054px"/><line x1="559.22" y1="449.72" x2="547.08" y2="449.72" style="fill:none;stroke:#000;stroke-linecap:round;stroke-miterlimit:10;stroke-width:0.9890323281288147px"/><line x1="559.21" y1="446.69" x2="547.08" y2="446.67" style="fill:none;stroke:#000;stroke-linecap:round;stroke-miterlimit:10;stroke-width:0.9890323281288147px"/><line x1="559.22" y1="443.63" x2="547.08" y2="443.63" style="fill:none;stroke:#000;stroke-linecap:round;stroke-miterlimit:10;stroke-width:0.9890323281288147px"/><path d="M559.21,440.09V394.66a12,12,0,0,0-12-12H501.48a12,12,0,0,0-12,12v45.73a12,12,0,0,0,12,12h45.73" style="fill:none;stroke:#000;stroke-linecap:round;stroke-linejoin:round"/><line x1="669.62" y1="449.53" x2="657.48" y2="449.53" style="fill:none;stroke:#000;stroke-linecap:round;stroke-miterlimit:10;stroke-width:0.9890323281288147px"/><line x1="669.6" y1="446.5" x2="657.48" y2="446.48" style="fill:none;stroke:#000;stroke-linecap:round;stroke-miterlimit:10;stroke-width:0.9890323281288147px"/><line x1="669.62" y1="443.44" x2="657.48" y2="443.44" style="fill:none;stroke:#000;stroke-linecap:round;stroke-miterlimit:10;stroke-width:0.9890323281288147px"/><path d="M669.6,439.9V394.47a12,12,0,0,0-12-12H611.87a12,12,0,0,0-12,12V440.2a12,12,0,0,0,12,12H657.6" style="fill:none;stroke:#000;stroke-linecap:round;stroke-linejoin:round"/><path d="M645.3,401.53a15.54,15.54,0,1,1,0,31.08"/><g style="clip-path:url(#clip-path)"><circle cx="645.15" cy="417.26" r="3.33" style="fill:none;stroke:#fff;stroke-miterlimit:10;stroke-width:0.7849296846766292px"/><polyline points="657.96 410.45 656.39 408.88 652.31 412.96" style="fill:#fff"/></g><path d="M639.2,398.51H616.66v37.65H639.2a5.34,5.34,0,0,0,5.33-5.32v-27A5.35,5.35,0,0,0,639.2,398.51Z"/><path d="M614,398.51a5.35,5.35,0,0,0-5.33,5.33v27a5.34,5.34,0,0,0,5.33,5.32h1.69V398.51Z"/><path d="M638.18,405.67l-14.07,3.22v3.66h0v12a3.46,3.46,0,0,0-2.72.12c-1.57.69-2.42,2.21-1.9,3.38s2.21,1.56,3.78.87a3.27,3.27,0,0,0,2-2.31h0v0a1.94,1.94,0,0,0,0-.59V414.23l11.7-2.72v10.1a3.49,3.49,0,0,0-2.75.12c-1.56.69-2.41,2.21-1.89,3.38s2.21,1.56,3.78.87a3.08,3.08,0,0,0,2-2.77h0v-14h0ZM637,410.3,625.3,413v-.75l11.7-2.79Z" style="fill:#fff"/><line x1="782.67" y1="449.53" x2="770.54" y2="449.53" style="fill:none;stroke:#000;stroke-linecap:round;stroke-miterlimit:10;stroke-width:0.9890323281288147px"/><line x1="782.66" y1="446.5" x2="770.54" y2="446.48" style="fill:none;stroke:#000;stroke-linecap:round;stroke-miterlimit:10;stroke-width:0.9890323281288147px"/><line x1="782.67" y1="443.44" x2="770.54" y2="443.44" style="fill:none;stroke:#000;stroke-linecap:round;stroke-miterlimit:10;stroke-width:0.9890323281288147px"/><path d="M782.66,439.9V394.47a12,12,0,0,0-12-12H724.93a12,12,0,0,0-12,12V440.2a12,12,0,0,0,12,12h45.73" style="fill:none;stroke:#000;stroke-linecap:round;stroke-linejoin:round"/><path d="M763.34,394.14H735.56v46.4h27.78A6.59,6.59,0,0,0,769.9,434V400.7A6.58,6.58,0,0,0,763.34,394.14Z"/><path d="M732.26,394.14a6.59,6.59,0,0,0-6.57,6.56V434a6.59,6.59,0,0,0,6.57,6.57h2.08v-46.4Z"/><path d="M762.08,403l-17.34,4v4.51h0v14.84a4.28,4.28,0,0,0-3.35.14c-1.93.86-3,2.72-2.34,4.17s2.73,1.93,4.66,1.07a4,4,0,0,0,2.47-2.85h0v-.06a2.48,2.48,0,0,0,0-.72V413.51l14.41-3.36v12.46a4.26,4.26,0,0,0-3.38.13c-1.93.86-3,2.73-2.34,4.18s2.73,1.92,4.66,1.07a3.81,3.81,0,0,0,2.5-3.42h0V407.31h0Zm-1.46,5.69L746.21,412v-.92l14.41-3.44Z" style="fill:#fff"/><path d="M229.7,411.82l-.35-.22c-1.85-1.19-2.16-1.77-2.33-2.39v-2.62a10.39,10.39,0,0,0,1.81,1.38l.36.23c1.87,1.16,3.63,2.45,2.91,4.37a.48.48,0,0,0,.28.62.51.51,0,0,0,.17,0,.49.49,0,0,0,.45-.31c1.06-2.82-1.78-4.58-3.3-5.53l-.35-.22c-1.89-1.21-2.17-1.79-2.34-2.42a.48.48,0,0,0-.59-.34.47.47,0,0,0-.34.52.3.3,0,0,0,0,.1v16.43a3.83,3.83,0,0,0-3.49-.06c-1.79.8-2.77,2.53-2.17,3.88s2.54,1.8,4.34,1c1.64-.73,2.59-2.24,2.28-3.53V411a10.91,10.91,0,0,0,1.81,1.38l.36.22c1.87,1.16,3.63,2.46,2.91,4.38a.47.47,0,0,0,.28.61.35.35,0,0,0,.17,0,.48.48,0,0,0,.45-.32C234.06,414.52,231.22,412.76,229.7,411.82Z"/><line x1="120.78" y1="460" x2="108.65" y2="460" style="fill:none;stroke:#000;stroke-linecap:round;stroke-miterlimit:10;stroke-width:0.9890323281288147px"/><line x1="120.77" y1="456.97" x2="108.65" y2="456.96" style="fill:none;stroke:#000;stroke-linecap:round;stroke-miterlimit:10;stroke-width:0.9890323281288147px"/><line x1="120.78" y1="453.91" x2="108.65" y2="453.91" style="fill:none;stroke:#000;stroke-linecap:round;stroke-miterlimit:10;stroke-width:0.9890323281288147px"/><path d="M120.77,450.38V405a12,12,0,0,0-12-12H63a12,12,0,0,0-12,12v45.73a12,12,0,0,0,12,12h45.73" style="fill:none;stroke:#000;stroke-linecap:round;stroke-linejoin:round"/><path d="M85.91,414.11a6.26,6.26,0,0,0-6.24,6.24v2.08H89.82v1.88H79.67v2.5H89.82v1.87H79.67v2.5H89.82v1.87H79.67v2.08a6.25,6.25,0,1,0,12.49,0V420.35A6.26,6.26,0,0,0,85.91,414.11Z"/><path d="M95.86,432.43c0,6.09-4.48,11-10,11s-10-4.94-10-11" style="fill:none;stroke:#000;stroke-linecap:round;stroke-miterlimit:10;stroke-width:1.6656375583016696px"/><polygon points="86.8 449.19 86.8 443.46 84.92 443.46 84.92 449.19 78.31 449.19 78.31 451.06 93.41 451.06 93.41 449.19 86.8 449.19"/><path d="M75.76,414.71a10.15,10.15,0,0,1,20.3,0" style="fill:none;stroke:#000;stroke-linecap:round;stroke-miterlimit:10;stroke-width:0.9463849511654965px"/><path d="M77.79,417.76a8.12,8.12,0,0,1,16.24,0" style="fill:none;stroke:#000;stroke-linecap:round;stroke-miterlimit:10;stroke-width:0.7571079722141849px"/><line x1="241.78" y1="460" x2="229.65" y2="460" style="fill:none;stroke:#000;stroke-linecap:round;stroke-miterlimit:10;stroke-width:0.9890323281288147px"/><line x1="241.77" y1="456.97" x2="229.65" y2="456.96" style="fill:none;stroke:#000;stroke-linecap:round;stroke-miterlimit:10;stroke-width:0.9890323281288147px"/><line x1="241.78" y1="453.91" x2="229.65" y2="453.91" style="fill:none;stroke:#000;stroke-linecap:round;stroke-miterlimit:10;stroke-width:0.9890323281288147px"/><path d="M241.77,450.38V405a12,12,0,0,0-12-12H184a12,12,0,0,0-12,12v45.73a12,12,0,0,0,12,12h45.73" style="fill:none;stroke:#000;stroke-linecap:round;stroke-linejoin:round"/><path d="M217,431.16l1,.54-1.57-1.53A1,1,0,0,0,217,431.16Z" style="fill:none"/><path d="M214.65,428.45a3.72,3.72,0,0,1,1.78-.84c0-.18,0-.37,0-.55a1.32,1.32,0,0,1,.29-.8,17.68,17.68,0,0,0,3.31-5.21,1,1,0,0,1,.59-.46,4.27,4.27,0,0,0,2.36-1.51c1.46-1.77,1.58-6-1.39-7.63a1.1,1.1,0,0,1-.62-.9A16.75,16.75,0,0,0,217.7,403c-5.22-6.72-14.32-7-19.87-.64a16.28,16.28,0,0,0-3.77,8,1.32,1.32,0,0,1-.72,1.06,4.08,4.08,0,0,0-2.25,3.54,15.5,15.5,0,0,0,0,1.67,4.45,4.45,0,0,0,3.23,4,1.49,1.49,0,0,1,.71.63c.6,1,1.18,2,1.72,3s1.66,1.45,1.78,2.58a16.8,16.8,0,0,1,0,1.88,4.24,4.24,0,0,1,1.55-.05A2.42,2.42,0,0,1,202.2,431a6.4,6.4,0,0,1-.5,3,19.25,19.25,0,0,1-2.47,4.4,29.37,29.37,0,0,0-2.49,3.94,9.23,9.23,0,0,0-1,2.93,3.07,3.07,0,0,0,.09,1.38,1.75,1.75,0,0,0,1.7,1.21,5.5,5.5,0,0,0,2.93-.83,9.91,9.91,0,0,0,2-1.51l.51.46a8.9,8.9,0,0,1-4.51,2.51,3.28,3.28,0,0,1-2.26-.32A2.47,2.47,0,0,1,195,446a7.08,7.08,0,0,1,.66-3,23.57,23.57,0,0,1,2.78-4.69,20.06,20.06,0,0,0,2.53-4.37,6.52,6.52,0,0,0,.54-2.58,1.79,1.79,0,0,0-1.77-1.89,3.81,3.81,0,0,0-1.22.1c0,.21,0,.42,0,.63a1,1,0,0,1-.61,1q-5.73,3.16-11.44,6.39a8.61,8.61,0,0,0-4.62,6.67,42.78,42.78,0,0,0-.12,4.94c0,1.91.47,2.37,2.4,2.37h46.67a2.2,2.2,0,0,0,2.38-2.39v-3.28a9.07,9.07,0,0,0-5-8.43l-7.66-4.27a3.51,3.51,0,0,1-.44.67M218,431.7l-1-.54m-13.6,14.75-.85-.85,1-1c.3.28.59.55.87.83Zm1.65-1.24a.28.28,0,0,1-.31-.08c-.28-.3-.58-.59-.87-.89a.35.35,0,0,1-.07-.26c.08-.41.19-.81.29-1.16l2.18,2.09ZM216,436a3.11,3.11,0,0,0-.51.36l-8.55,7.79-.05,0-2.62-2.53c.2-.23.39-.43.58-.63l6.48-7c.14-.15.28-.31.43-.45a5.1,5.1,0,0,0,1.19-1.74l3.85,3.75Zm2.21-.86h-.07c-.83.22-.84.21-1.44-.39-1-1-2.09-2.11-3.15-3.16a.71.71,0,0,1-.24-.64,3.89,3.89,0,0,1,.89-2l5.53,5.39A3.57,3.57,0,0,1,218.17,435.16Z"/><line x1="559.18" y1="635.01" x2="547.05" y2="635.01" style="fill:none;stroke:#000;stroke-linecap:round;stroke-miterlimit:10;stroke-width:0.9890323281288147px"/><line x1="559.17" y1="631.98" x2="547.05" y2="631.96" style="fill:none;stroke:#000;stroke-linecap:round;stroke-miterlimit:10;stroke-width:0.9890323281288147px"/><line x1="559.18" y1="628.92" x2="547.05" y2="628.92" style="fill:none;stroke:#000;stroke-linecap:round;stroke-miterlimit:10;stroke-width:0.9890323281288147px"/><path d="M559.17,625.38V580a12,12,0,0,0-12-12H501.44a12,12,0,0,0-12,12v45.73a12,12,0,0,0,12,12h45.73" style="fill:none;stroke:#000;stroke-linecap:round;stroke-linejoin:round"/><path d="M528.14,582.88H504.56v39.4h23.58a5.6,5.6,0,0,0,5.58-5.58V588.46A5.6,5.6,0,0,0,528.14,582.88Z"/><path d="M501.76,582.88a5.6,5.6,0,0,0-5.58,5.58V616.7a5.6,5.6,0,0,0,5.58,5.58h1.76v-39.4Z"/><path d="M527.08,590.38l-14.72,3.36v3.84h0v12.59a3.68,3.68,0,0,0-2.86.12c-1.63.73-2.52,2.32-2,3.54s2.32,1.64,4,.92a3.47,3.47,0,0,0,2.1-2.43h0v-.05a2.08,2.08,0,0,0,0-.61V599.33l12.24-2.85v10.58a3.64,3.64,0,0,0-2.88.11c-1.63.73-2.52,2.32-2,3.54s2.32,1.64,4,.91a3.22,3.22,0,0,0,2.12-2.9h0V594.06h0Zm-1.24,4.84-12.24,2.84v-.78l12.24-2.92Z" style="fill:#fff"/><line x1="671.18" y1="635.01" x2="659.04" y2="635.01" style="fill:none;stroke:#000;stroke-linecap:round;stroke-miterlimit:10;stroke-width:0.9890323281288147px"/><line x1="671.16" y1="631.98" x2="659.04" y2="631.96" style="fill:none;stroke:#000;stroke-linecap:round;stroke-miterlimit:10;stroke-width:0.9890323281288147px"/><line x1="671.18" y1="628.92" x2="659.04" y2="628.92" style="fill:none;stroke:#000;stroke-linecap:round;stroke-miterlimit:10;stroke-width:0.9890323281288147px"/><path d="M671.16,625.38V580a12,12,0,0,0-12-12H613.43a12,12,0,0,0-12,12v45.73a12,12,0,0,0,12,12h45.73" style="fill:none;stroke:#000;stroke-linecap:round;stroke-linejoin:round"/><path d="M638,608.35l.82.46-1.33-1.3A.86.86,0,0,0,638,608.35Z" style="fill:none"/><path d="M636,606a3.19,3.19,0,0,1,1.52-.71c0-.16,0-.32,0-.47a1.14,1.14,0,0,1,.24-.68,15.22,15.22,0,0,0,2.82-4.44.82.82,0,0,1,.5-.39,3.62,3.62,0,0,0,2-1.29c1.24-1.5,1.35-5.13-1.18-6.49a1,1,0,0,1-.53-.77,14.26,14.26,0,0,0-2.78-6.4c-4.44-5.72-12.19-6-16.91-.55a13.85,13.85,0,0,0-3.21,6.84,1.18,1.18,0,0,1-.61.91,3.46,3.46,0,0,0-1.92,3,11.21,11.21,0,0,0,0,1.42,3.79,3.79,0,0,0,2.75,3.43,1.26,1.26,0,0,1,.6.54c.51.84,1,1.7,1.47,2.57s1.41,1.23,1.51,2.19a10.8,10.8,0,0,1,0,1.61,3.65,3.65,0,0,1,1.32,0,2.07,2.07,0,0,1,1.78,1.85,5.56,5.56,0,0,1-.43,2.58,16.39,16.39,0,0,1-2.1,3.74,25,25,0,0,0-2.12,3.36,7.56,7.56,0,0,0-.84,2.49,2.63,2.63,0,0,0,.07,1.18,1.51,1.51,0,0,0,1.45,1,4.74,4.74,0,0,0,2.49-.71,8.34,8.34,0,0,0,1.71-1.29l.43.4a7.53,7.53,0,0,1-3.84,2.13,2.73,2.73,0,0,1-1.92-.27,2.11,2.11,0,0,1-1-1.84,6,6,0,0,1,.57-2.59,20.05,20.05,0,0,1,2.36-4,17.06,17.06,0,0,0,2.15-3.72,5.48,5.48,0,0,0,.46-2.19,1.52,1.52,0,0,0-1.51-1.61,3.22,3.22,0,0,0-1,.08c0,.18,0,.36,0,.54a.83.83,0,0,1-.52.86q-4.87,2.7-9.74,5.44a7.33,7.33,0,0,0-3.93,5.68,34.6,34.6,0,0,0-.1,4.2c0,1.63.4,2,2,2h39.72a1.88,1.88,0,0,0,2-2v-2.79a7.73,7.73,0,0,0-4.23-7.18l-6.51-3.63a3.53,3.53,0,0,1-.38.57m-1.87-1.82-.82-.46M626.46,620.9l-.73-.72.87-.87.73.7Zm1.4-1a.23.23,0,0,1-.26-.07c-.24-.26-.5-.5-.74-.76a.29.29,0,0,1-.07-.22c.08-.35.17-.68.25-1l1.86,1.78Zm9.28-7.36a2.63,2.63,0,0,0-.44.3l-7.27,6.63,0,0-2.23-2.16.5-.54,5.51-6c.12-.13.24-.26.37-.38a4.34,4.34,0,0,0,1-1.48c1.09,1.06,2.18,2.11,3.28,3.19C637.57,612.26,637.35,612.36,637.14,612.49Zm1.88-.73H639c-.71.18-.71.17-1.22-.34-.9-.9-1.78-1.8-2.68-2.69a.59.59,0,0,1-.21-.54,3.34,3.34,0,0,1,.75-1.74l4.72,4.59A3.41,3.41,0,0,1,639,611.76Z"/><rect x="71.87" y="614.37" width="40.81" height="4.3" rx="2.15"/><rect x="71.87" y="600.92" width="20.36" height="4.3" rx="2.15"/><rect x="71.87" y="587.46" width="40.81" height="4.3" rx="2.15"/><rect x="58.81" y="613.48" width="6.09" height="6.09" rx="3.04" style="fill:none;stroke:#000;stroke-miterlimit:10"/><rect x="58.81" y="600.02" width="6.09" height="6.09" rx="3.04" style="fill:none;stroke:#000;stroke-miterlimit:10"/><rect x="58.81" y="586.57" width="6.09" height="6.09" rx="3.04" style="fill:none;stroke:#000;stroke-miterlimit:10"/><line x1="120.62" y1="635.26" x2="108.48" y2="635.26" style="fill:none;stroke:#000;stroke-linecap:round;stroke-miterlimit:10;stroke-width:0.9890323281288147px"/><line x1="120.6" y1="632.23" x2="108.48" y2="632.21" style="fill:none;stroke:#000;stroke-linecap:round;stroke-miterlimit:10;stroke-width:0.9890323281288147px"/><line x1="111.6" y1="602.23" x2="99.48" y2="602.21" style="fill:none;stroke:#000;stroke-linecap:round;stroke-miterlimit:10;stroke-width:2px"/><line x1="105.55" y1="596.16" x2="105.54" y2="608.28" style="fill:none;stroke:#000;stroke-linecap:round;stroke-miterlimit:10;stroke-width:2px"/><line x1="120.62" y1="629.17" x2="108.48" y2="629.17" style="fill:none;stroke:#000;stroke-linecap:round;stroke-miterlimit:10;stroke-width:0.9890323281288147px"/><path d="M120.6,625.63V580.2a12,12,0,0,0-12-12H62.87a12,12,0,0,0-12,12v45.73a12,12,0,0,0,12,12H108.6" style="fill:none;stroke:#000;stroke-linecap:round;stroke-linejoin:round"/><rect x="198.61" y="758.47" width="14.62" height="1.54" rx="0.64"/><rect x="198.61" y="753.65" width="7.29" height="1.54" rx="0.64"/><rect x="198.61" y="748.83" width="14.62" height="1.54" rx="0.64"/><rect x="193.94" y="758.15" width="2.18" height="2.18" rx="0.91" style="fill:none;stroke:#000;stroke-miterlimit:10;stroke-width:0.3581644908753152px"/><rect x="193.94" y="753.33" width="2.18" height="2.18" rx="0.91" style="fill:none;stroke:#000;stroke-miterlimit:10;stroke-width:0.3581644908753152px"/><rect x="193.94" y="748.51" width="2.18" height="2.18" rx="0.91" style="fill:none;stroke:#000;stroke-miterlimit:10;stroke-width:0.3581644908753152px"/><line x1="212.84" y1="754.12" x2="208.5" y2="754.11" style="fill:none;stroke:#000;stroke-linecap:round;stroke-miterlimit:10;stroke-width:0.7163289817506304px"/><line x1="210.68" y1="751.95" x2="210.67" y2="756.29" style="fill:none;stroke:#000;stroke-linecap:round;stroke-miterlimit:10;stroke-width:0.7163289817506304px"/><path d="M182,746.38l-.75-.47c-4-2.57-4.67-3.84-5-5.19v-5.67a23.46,23.46,0,0,0,3.92,3l.8.49c4,2.52,7.87,5.32,6.3,9.48a1,1,0,0,0,.61,1.34.92.92,0,0,0,.36.07,1.06,1.06,0,0,0,1-.67c2.3-6.11-3.85-9.93-7.16-12l-.76-.49c-4.09-2.61-4.7-3.88-5.07-5.25a1,1,0,0,0-2,.4,1.42,1.42,0,0,0,0,.2v35.66a8.23,8.23,0,0,0-7.57-.15c-3.89,1.73-6,5.5-4.71,8.42s5.5,3.9,9.4,2.17c3.57-1.58,5.63-4.87,5-7.66V744.68a23.24,23.24,0,0,0,3.93,3l.78.49c4,2.52,7.88,5.32,6.31,9.49a1,1,0,0,0,.61,1.34,1.15,1.15,0,0,0,.36.07,1.05,1.05,0,0,0,1-.68C191.42,752.26,185.26,748.44,182,746.38Z"/><line x1="222.19" y1="786.61" x2="210.06" y2="786.61" style="fill:none;stroke:#000;stroke-linecap:round;stroke-miterlimit:10;stroke-width:0.9890323281288147px"/><line x1="222.18" y1="783.58" x2="210.06" y2="783.57" style="fill:none;stroke:#000;stroke-linecap:round;stroke-miterlimit:10;stroke-width:0.9890323281288147px"/><line x1="222.19" y1="780.52" x2="210.06" y2="780.52" style="fill:none;stroke:#000;stroke-linecap:round;stroke-miterlimit:10;stroke-width:0.9890323281288147px"/><path d="M222.18,777V731.55a12,12,0,0,0-12-12H164.45a12,12,0,0,0-12,12v45.73a12,12,0,0,0,12,12h45.73" style="fill:none;stroke:#000;stroke-linecap:round;stroke-linejoin:round"/><rect x="94.83" y="746.45" width="1.33" height="15.93"/><rect x="96.91" y="748.16" width="1.33" height="14.23"/><rect x="99" y="746.45" width="1.33" height="15.93"/><rect x="102.22" y="746.45" width="1.33" height="15.93" transform="matrix(0.99, -0.16, 0.16, 0.99, -120.23, 26.44)"/><line x1="110.44" y1="754.42" x2="106.1" y2="754.42" style="fill:none;stroke:#000;stroke-linecap:round;stroke-miterlimit:10;stroke-width:0.7163289817506304px"/><line x1="108.27" y1="752.25" x2="108.27" y2="756.59" style="fill:none;stroke:#000;stroke-linecap:round;stroke-miterlimit:10;stroke-width:0.7163289817506304px"/><path d="M81.55,746.38l-.76-.47c-4-2.57-4.67-3.84-5-5.19v-5.67a23.46,23.46,0,0,0,3.92,3l.79.49c4.05,2.52,7.87,5.32,6.31,9.48a1,1,0,0,0,.6,1.34,1,1,0,0,0,.37.07,1,1,0,0,0,1-.67c2.3-6.11-3.85-9.93-7.15-12l-.77-.49c-4.09-2.61-4.69-3.88-5.06-5.25a1,1,0,0,0-1.27-.74,1,1,0,0,0-.75,1.14,1.42,1.42,0,0,0,0,.2v35.66a8.23,8.23,0,0,0-7.57-.15c-3.9,1.73-6,5.5-4.71,8.42s5.5,3.9,9.4,2.17c3.57-1.58,5.63-4.87,5-7.66V744.68a23.5,23.5,0,0,0,3.92,3l.78.49c4.06,2.52,7.88,5.32,6.32,9.49a1,1,0,0,0,.6,1.34,1.21,1.21,0,0,0,.37.07,1,1,0,0,0,1-.68C91,752.26,84.86,748.44,81.55,746.38Z"/><line x1="120.6" y1="786.61" x2="108.46" y2="786.61" style="fill:none;stroke:#000;stroke-linecap:round;stroke-miterlimit:10;stroke-width:0.9890323281288147px"/><line x1="120.58" y1="783.58" x2="108.46" y2="783.57" style="fill:none;stroke:#000;stroke-linecap:round;stroke-miterlimit:10;stroke-width:0.9890323281288147px"/><line x1="120.6" y1="780.52" x2="108.46" y2="780.52" style="fill:none;stroke:#000;stroke-linecap:round;stroke-miterlimit:10;stroke-width:0.9890323281288147px"/><path d="M120.58,777V731.55a12,12,0,0,0-12-12H62.85a12,12,0,0,0-12,12v45.73a12,12,0,0,0,12,12h45.73" style="fill:none;stroke:#000;stroke-linecap:round;stroke-linejoin:round"/><use width="64" height="60.97" transform="translate(199.23 595.54) scale(0.25 0.25)" xlink:href="#Favorite"/><rect x="173.87" y="614.37" width="40.81" height="4.3" rx="2.15"/><rect x="173.87" y="600.92" width="20.36" height="4.3" rx="2.15"/><rect x="173.87" y="587.46" width="40.81" height="4.3" rx="2.15"/><rect x="160.81" y="613.48" width="6.09" height="6.09" rx="3.04" style="fill:none;stroke:#000;stroke-miterlimit:10"/><rect x="160.81" y="600.02" width="6.09" height="6.09" rx="3.04" style="fill:none;stroke:#000;stroke-miterlimit:10"/><rect x="160.81" y="586.57" width="6.09" height="6.09" rx="3.04" style="fill:none;stroke:#000;stroke-miterlimit:10"/><line x1="222.62" y1="635.26" x2="210.48" y2="635.26" style="fill:none;stroke:#000;stroke-linecap:round;stroke-miterlimit:10;stroke-width:0.9890323281288147px"/><line x1="222.6" y1="632.23" x2="210.48" y2="632.21" style="fill:none;stroke:#000;stroke-linecap:round;stroke-miterlimit:10;stroke-width:0.9890323281288147px"/><line x1="222.62" y1="629.17" x2="210.48" y2="629.17" style="fill:none;stroke:#000;stroke-linecap:round;stroke-miterlimit:10;stroke-width:0.9890323281288147px"/><path d="M222.6,625.63V580.2a12,12,0,0,0-12-12H164.87a12,12,0,0,0-12,12v45.73a12,12,0,0,0,12,12H210.6" style="fill:none;stroke:#000;stroke-linecap:round;stroke-linejoin:round"/><rect x="274.87" y="614.37" width="40.81" height="4.3" rx="2.15"/><rect x="274.87" y="600.92" width="20.36" height="4.3" rx="2.15"/><rect x="274.87" y="587.46" width="40.81" height="4.3" rx="2.15"/><rect x="261.81" y="613.48" width="6.09" height="6.09" rx="3.04" style="fill:none;stroke:#000;stroke-miterlimit:10"/><rect x="261.81" y="600.02" width="6.09" height="6.09" rx="3.04" style="fill:none;stroke:#000;stroke-miterlimit:10"/><rect x="261.81" y="586.57" width="6.09" height="6.09" rx="3.04" style="fill:none;stroke:#000;stroke-miterlimit:10"/><line x1="323.62" y1="635.26" x2="311.48" y2="635.26" style="fill:none;stroke:#000;stroke-linecap:round;stroke-miterlimit:10;stroke-width:0.9890323281288147px"/><line x1="323.6" y1="632.23" x2="311.48" y2="632.21" style="fill:none;stroke:#000;stroke-linecap:round;stroke-miterlimit:10;stroke-width:0.9890323281288147px"/><line x1="323.62" y1="629.17" x2="311.48" y2="629.17" style="fill:none;stroke:#000;stroke-linecap:round;stroke-miterlimit:10;stroke-width:0.9890323281288147px"/><path d="M323.6,625.63V580.2a12,12,0,0,0-12-12H265.87a12,12,0,0,0-12,12v45.73a12,12,0,0,0,12,12H311.6" style="fill:none;stroke:#000;stroke-linecap:round;stroke-linejoin:round"/><rect x="299.81" y="600.02" width="6.09" height="6.09" rx="3.04" style="fill:none;stroke:#000;stroke-miterlimit:10"/><rect x="309.81" y="604.48" width="6.09" height="6.09" rx="3.04" style="fill:none;stroke:#000;stroke-miterlimit:10"/><rect x="309.81" y="595.57" width="6.09" height="6.09" rx="3.04" style="fill:none;stroke:#000;stroke-miterlimit:10"/><line x1="309.73" y1="600.04" x2="305.73" y2="602.04" style="fill:none;stroke:#000;stroke-miterlimit:10"/><line x1="309.73" y1="606.04" x2="305.55" y2="604.48" style="fill:none;stroke:#000;stroke-miterlimit:10"/><rect x="538.81" y="600.02" width="6.09" height="6.09" rx="3.04" style="fill:none;stroke:#000;stroke-miterlimit:10"/><rect x="548.81" y="604.48" width="6.09" height="6.09" rx="3.04" style="fill:none;stroke:#000;stroke-miterlimit:10"/><rect x="548.81" y="595.57" width="6.09" height="6.09" rx="3.04" style="fill:none;stroke:#000;stroke-miterlimit:10"/><line x1="548.73" y1="600.04" x2="544.73" y2="602.04" style="fill:none;stroke:#000;stroke-miterlimit:10"/><line x1="548.73" y1="606.04" x2="544.55" y2="604.48" style="fill:none;stroke:#000;stroke-miterlimit:10"/><rect x="650.81" y="600.02" width="6.09" height="6.09" rx="3.04" style="fill:none;stroke:#000;stroke-miterlimit:10"/><rect x="660.81" y="604.48" width="6.09" height="6.09" rx="3.04" style="fill:none;stroke:#000;stroke-miterlimit:10"/><rect x="660.81" y="595.57" width="6.09" height="6.09" rx="3.04" style="fill:none;stroke:#000;stroke-miterlimit:10"/><line x1="660.73" y1="600.04" x2="656.73" y2="602.04" style="fill:none;stroke:#000;stroke-miterlimit:10"/><line x1="660.73" y1="606.04" x2="656.55" y2="604.48" style="fill:none;stroke:#000;stroke-miterlimit:10"/><path d="M743.59,589.64l-.76-.47c-4-2.55-4.62-3.8-5-5.14v-5.62a23.44,23.44,0,0,0,3.88,3l.79.5c4,2.49,7.8,5.27,6.25,9.39a1,1,0,0,0,.6,1.33.92.92,0,0,0,.36.07,1,1,0,0,0,1-.67c2.27-6.05-3.82-9.84-7.09-11.87l-.77-.48c-4.05-2.59-4.65-3.85-5-5.21a1,1,0,0,0-1.27-.73,1,1,0,0,0-.73,1.13.65.65,0,0,0,0,.2v35.34a8.2,8.2,0,0,0-7.51-.15c-3.86,1.72-5.95,5.46-4.67,8.35s5.46,3.86,9.32,2.14c3.54-1.56,5.58-4.82,4.92-7.58V588a23.4,23.4,0,0,0,3.88,3l.78.48c4,2.49,7.81,5.27,6.26,9.41a1,1,0,0,0,.6,1.32.92.92,0,0,0,.36.07,1,1,0,0,0,1-.67C753,595.46,746.86,591.67,743.59,589.64Z"/><rect x="755.67" y="600.02" width="6.09" height="6.09" rx="3.04" style="fill:none;stroke:#000;stroke-miterlimit:10"/><rect x="765.67" y="604.48" width="6.09" height="6.09" rx="3.04" style="fill:none;stroke:#000;stroke-miterlimit:10"/><rect x="765.67" y="595.57" width="6.09" height="6.09" rx="3.04" style="fill:none;stroke:#000;stroke-miterlimit:10"/><line x1="765.59" y1="600.04" x2="761.59" y2="602.04" style="fill:none;stroke:#000;stroke-miterlimit:10"/><line x1="765.59" y1="606.04" x2="761.41" y2="604.48" style="fill:none;stroke:#000;stroke-miterlimit:10"/><text transform="translate(51.73 164.39)" style="font-size:20.020816802978516px;font-family:MyriadPro-Regular, Myriad Pro">Lists of <tspan x="61.94" y="0" style="letter-spacing:-0.005024067623706328em">P</tspan><tspan x="72.49" y="0">l</tspan><tspan x="77.22" y="0" style="letter-spacing:-0.007999486313474153em">a</tspan><tspan x="86.71" y="0">ylists in the Lib</tspan><tspan x="209.85" y="0" style="letter-spacing:-0.004975290268136364em">r</tspan><tspan x="216.3" y="0">a</tspan><tspan x="225.95" y="0" style="letter-spacing:0.024974006051821748em">r</tspan><tspan x="233" y="0">y</tspan></text><text transform="translate(51.73 362.39)" style="font-size:20.020816802978516px;font-family:MyriadPro-Regular, Myriad Pro">List of A<tspan x="66.27" y="0" style="letter-spacing:0.023998458940422462em">r</tspan><tspan x="73.29" y="0" style="letter-spacing:-0.00004877735556996435em">tists in the Lib</tspan><tspan x="188.91" y="0" style="letter-spacing:-0.004975290268136364em">r</tspan><tspan x="195.36" y="0" style="letter-spacing:-0.00004877735556996435em">a</tspan><tspan x="205.01" y="0" style="letter-spacing:0.024974006051821748em">r</tspan><tspan x="212.06" y="0">y</tspan></text><text transform="translate(51.73 550.39)" style="font-size:20.020816802978516px;font-family:MyriadPro-Regular, Myriad Pro">C<tspan x="11.61" y="0" style="letter-spacing:-0.009999357891842692em">r</tspan><tspan x="17.96" y="0">e</tspan><tspan x="27.99" y="0" style="letter-spacing:-0.0039997431567370765em">a</tspan><tspan x="37.56" y="0" style="letter-spacing:-0.005999614735105616em">t</tspan><tspan x="44.07" y="0">e new </tspan><tspan x="98.46" y="0" style="letter-spacing:-0.005024067623706328em">P</tspan><tspan x="109.01" y="0">l</tspan><tspan x="113.74" y="0" style="letter-spacing:-0.007999486313474153em">a</tspan><tspan x="123.23" y="0">ylist, S</tspan><tspan x="174.88" y="0" style="letter-spacing:-0.007999486313474153em">a</tspan><tspan x="184.37" y="0" style="letter-spacing:-0.009999357891842692em">v</tspan><tspan x="193.8" y="0">e </tspan><tspan x="208.07" y="0" style="letter-spacing:-0.005024067623706328em">P</tspan><tspan x="218.62" y="0">l</tspan><tspan x="223.35" y="0" style="letter-spacing:-0.007999486313474153em">a</tspan><tspan x="232.84" y="0">ylist, Sha</tspan><tspan x="305.25" y="0" style="letter-spacing:-0.009999357891842692em">r</tspan><tspan x="311.6" y="0" style="letter-spacing:-0.00004877735556996435em">e </tspan><tspan x="325.87" y="0" style="letter-spacing:-0.005024067623706328em">P</tspan><tspan x="336.42" y="0">l</tspan><tspan x="341.15" y="0" style="letter-spacing:-0.007999486313474153em">a</tspan><tspan x="350.64" y="0">ylist</tspan></text><text transform="translate(51.73 703.39)" style="font-size:20.020816802978516px;font-family:MyriadPro-Regular, Myriad Pro"><tspan style="letter-spacing:-0.011999229470211231em">A</tspan><tspan x="12.01" y="0">dd song </tspan><tspan x="84.31" y="0" style="letter-spacing:-0.005999614735105616em">t</tspan><tspan x="90.81" y="0">o lib</tspan><tspan x="126.85" y="0" style="letter-spacing:-0.004975290268136364em">r</tspan><tspan x="133.3" y="0" style="letter-spacing:-0.00004877735556996435em">a</tspan><tspan x="142.95" y="0" style="letter-spacing:0.025022783407391714em">r</tspan><tspan x="149.99" y="0" style="letter-spacing:-0.03902188445597148em">y</tspan><tspan x="158.64" y="0" style="letter-spacing:0.00004877735556996435em">, </tspan><tspan x="167.03" y="0" style="letter-spacing:-0.011999229470211231em">A</tspan><tspan x="179.04" y="0" style="letter-spacing:-0.00004877735556996435em">dd song </tspan><tspan x="251.34" y="0" style="letter-spacing:-0.005999614735105616em">t</tspan><tspan x="257.84" y="0">o </tspan><tspan x="273.08" y="0" style="letter-spacing:-0.005024067623706328em">P</tspan><tspan x="283.63" y="0">l</tspan><tspan x="288.36" y="0" style="letter-spacing:-0.007999486313474153em">a</tspan><tspan x="297.85" y="0">ylist</tspan></text><text transform="translate(51.73 864.39)" style="font-size:20.020816802978516px;font-family:MyriadPro-Regular, Myriad Pro">Sing Along</text><text transform="translate(210.73 864.39)" style="font-size:20.020816802978516px;font-family:MyriadPro-Regular, Myriad Pro"><tspan style="letter-spacing:0.005999614735105616em">S</tspan><tspan x="9.99" y="0">ocial Music </tspan><tspan x="106.21" y="0" style="letter-spacing:-0.03102239814249733em">F</tspan><tspan x="115.34" y="0">eed</tspan></text><text transform="translate(489.73 703.39)" style="font-size:20.020816802978516px;font-family:MyriadPro-Regular, Myriad Pro">Lib<tspan x="25.53" y="0" style="letter-spacing:-0.004975290268136364em">r</tspan><tspan x="31.97" y="0" style="letter-spacing:-0.00004877735556996435em">a</tspan><tspan x="41.62" y="0" style="letter-spacing:0.025022783407391714em">r</tspan><tspan x="48.67" y="0">y</tspan></text><text transform="translate(489.73 550.39)" style="font-size:20.020816802978516px;font-family:MyriadPro-Regular, Myriad Pro">Sha<tspan x="30.63" y="0" style="letter-spacing:-0.009999357891842692em">r</tspan><tspan x="36.98" y="0">e Album, Sha</tspan><tspan x="146.37" y="0" style="letter-spacing:-0.009999357891842692em">r</tspan><tspan x="152.72" y="0">e A</tspan><tspan x="179.24" y="0" style="letter-spacing:0.023949681584852497em">r</tspan><tspan x="186.27" y="0">tist, Sha</tspan><tspan x="251.16" y="0" style="letter-spacing:-0.009999357891842692em">r</tspan><tspan x="257.5" y="0">e </tspan><tspan x="271.78" y="0" style="letter-spacing:0.005999614735105616em">S</tspan><tspan x="281.77" y="0">ong</tspan></text><text transform="translate(489.73 164.39)" style="font-size:20.020816802978516px;font-family:MyriadPro-Regular, Myriad Pro">List of <tspan x="54.01" y="0" style="letter-spacing:0.005999614735105616em">S</tspan><tspan x="64" y="0">ongs in the Lib</tspan><tspan x="187.05" y="0" style="letter-spacing:-0.005024067623706328em">r</tspan><tspan x="193.5" y="0">a</tspan><tspan x="203.15" y="0" style="letter-spacing:0.024974006051821748em">r</tspan><tspan x="210.19" y="0">y</tspan></text><text transform="translate(489.73 362.39)" style="font-size:20.020816802978516px;font-family:MyriadPro-Regular, Myriad Pro">List of Albums in the Lib<tspan x="199.86" y="0" style="letter-spacing:-0.004975290268136364em">r</tspan><tspan x="206.31" y="0">a</tspan><tspan x="215.96" y="0" style="letter-spacing:0.024974006051821748em">r</tspan><tspan x="223.01" y="0">y</tspan></text><line x1="782.62" y1="254.37" x2="770.49" y2="254.51" style="fill:none;stroke:#000;stroke-linecap:round;stroke-miterlimit:10;stroke-width:0.9890323281288147px"/><line x1="782.57" y1="251.34" x2="770.45" y2="251.47" style="fill:none;stroke:#000;stroke-linecap:round;stroke-miterlimit:10;stroke-width:0.9890323281288147px"/><line x1="782.55" y1="248.27" x2="770.41" y2="248.42" style="fill:none;stroke:#000;stroke-linecap:round;stroke-miterlimit:10;stroke-width:0.9890323281288147px"/><path d="M782.21,244.46,781.66,199a12,12,0,0,0-12.15-11.86l-45.73.56a12,12,0,0,0-11.85,12.15l.56,45.73a12,12,0,0,0,12.15,11.85l45.72-.56" style="fill:none;stroke:#000;stroke-linecap:round;stroke-linejoin:round"/><rect x="747.89" y="200.19" width="3.8" height="45.61" transform="translate(-2.67 9.18) rotate(-0.7)"/><rect x="753.89" y="205" width="3.8" height="40.72" transform="translate(-2.7 9.26) rotate(-0.7)"/><rect x="759.83" y="200.04" width="3.8" height="45.61" transform="translate(-2.67 9.33) rotate(-0.7)"/><rect x="769.06" y="199.93" width="3.8" height="45.61" transform="translate(-26.93 136.9) rotate(-9.97)"/><path d="M737.53,214.63l-.74-.46c-3.94-2.45-4.59-3.67-5-5l-.07-5.52a22.71,22.71,0,0,0,3.85,2.86l.77.47c4,2.4,7.72,5.08,6.25,9.15a1,1,0,0,0,.6,1.29.76.76,0,0,0,.36.06,1,1,0,0,0,.94-.66c2.16-6-3.86-9.61-7.1-11.57l-.75-.46c-4-2.5-4.62-3.72-5-5.06a1,1,0,0,0-2,.42,1.42,1.42,0,0,0,0,.2l.43,34.68a8,8,0,0,0-7.37-.05c-3.77,1.73-5.77,5.42-4.48,8.25s5.4,3.72,9.17,2c3.45-1.57,5.42-4.79,4.73-7.5l-.3-24.71a22.71,22.71,0,0,0,3.85,2.86l.77.47c4,2.4,7.73,5.08,6.25,9.15a1,1,0,0,0,.61,1.3,1.12,1.12,0,0,0,.35.06,1,1,0,0,0,.94-.67C746.81,220.22,740.78,216.58,737.53,214.63Z"/></g></g></svg>