<svg xmlns="http://www.w3.org/2000/svg" xmlns:xlink="http://www.w3.org/1999/xlink" viewBox="0 0 855.22 855.22"><defs><symbol id="Favorite" data-name="Favorite" viewBox="0 0 64 60.97"><path d="M46.7,0c.9,0,1.86.05,2.89.15C55.86.76,63.11,6.5,64,17.5v3.66C63.18,31.69,55.23,44.68,32,61,8.77,44.68.82,31.69,0,21.16V17.5C.88,6.5,8.13.76,14.4.15c1-.1,2-.15,2.9-.15C24.54,0,28,3.13,32,7.87,36,3.13,39.45,0,46.7,0m0,7c-4.17,0-5.9,1.28-9.34,5.37L32,18.76l-5.36-6.39C23.2,8.28,21.46,7,17.3,7c-.68,0-1.43,0-2.22.12C12.19,7.4,7.69,10.48,7,17.8v3.07c.85,9.19,9.25,19.77,25,31.47,15.74-11.7,24.15-22.28,25-31.47V17.8c-.69-7.32-5.19-10.4-8.09-10.68A22.07,22.07,0,0,0,46.7,7Z"/></symbol></defs><title>image2</title><g id="Layer_2" data-name="Layer 2"><g id="Layer_1-2" data-name="Layer 1"><rect width="855.22" height="855.22" style="fill:#fff"/><path d="M716.63,338.46c0-2.24,0-4.29,0-6.35,0-1.52.69-2.31,1.93-2.28s1.86.81,1.86,2.24c0,3.55,0,7.09,0,10.64a2.11,2.11,0,0,1-1.62,2.26c-3.61,1.19-7.19,2.42-10.8,3.6a1.9,1.9,0,0,1-2.69-1.13c-.37-1.06.2-2,1.55-2.45,2.62-.9,5.26-1.77,8-2.71a20.39,20.39,0,0,0-8.9-5.77,20.93,20.93,0,1,0,14.19,16.93c-.13-1-.16-2,.85-2.42a2.49,2.49,0,0,1,2,.09,2.59,2.59,0,0,1,.91,1.68,24.71,24.71,0,1,1-27.13-20.93,24.31,24.31,0,0,1,18.59,5.69l.78.66A5.06,5.06,0,0,0,716.63,338.46Z"/><path d="M691.94,356.27c0-2.37,0-4.73,0-7.1,0-2,1.26-2.77,3-1.9,4.83,2.39,9.66,4.82,14.49,7.23a2,2,0,0,1,0,3.8c-4.8,2.38-9.59,4.79-14.39,7.17-1.9.94-3.1.18-3.12-2,0-2.41,0-4.82,0-7.22Zm12.86.12-9-4.49v9Z"/><path d="M704.8,356.39l-9,4.52v-9Z"/><rect x="341.23" y="329.98" width="59.58" height="6.28" rx="2.15"/><rect x="341.23" y="359.17" width="59.58" height="6.28" rx="2.15"/><rect x="303.81" y="373.77" width="97" height="6.28" rx="2.15"/><rect x="354.37" y="344.57" width="45.78" height="6.28" rx="2.15"/><path d="M304.16,348.48c0-4.68,0-9.36,0-14,.05-3.94,2.5-5.49,6-3.77,9.58,4.74,19.12,9.55,28.69,14.31,1.6.79,2.81,1.8,2.81,3.76s-1.22,3-2.81,3.77q-14.25,7.08-28.47,14.18c-3.78,1.88-6.15.37-6.19-3.91,0-4.77,0-9.53,0-14.3Zm25.46.25-17.88-8.9v17.84Z"/><path d="M329.62,348.73l-17.88,8.94V339.83Z"/><rect x="490.67" y="349.73" width="60.14" height="8.25" rx="2.15"/><path d="M436.22,354.87c0-6.15-.06-12.3,0-18.45.06-5.17,3.28-7.21,7.85-4.95,12.58,6.23,25.12,12.54,37.69,18.8,2.09,1,3.68,2.36,3.68,4.94s-1.59,3.91-3.69,5c-12.47,6.2-24.92,12.45-37.4,18.63-5,2.46-8.08.48-8.13-5.14-.05-6.26,0-12.52,0-18.78Zm33.45.33-23.5-11.69v23.43Z"/><path d="M469.67,355.2l-23.5,11.74V343.51Z"/><path d="M139.61,195.86v0a3.56,3.56,0,0,1,1.61-2,5.36,5.36,0,0,1,2.6-.71c.35,0,.71,0,1.06,0,4.7.2,9.39.21,14.08,0a11.55,11.55,0,0,1,8.69,2.77c3.34,3.06,6.49,6.33,9.71,9.52.63.62,1.18,1.3,1.92,2.13,1.44-1.65,2.74-3.25,4.15-4.75,2.28-2.44,4.58-4.87,7-7.2a8.93,8.93,0,0,1,6.73-2.49c4,.1,8,0,11.92.05,1.38,0,1.95-.35,1.87-1.8-.1-1.93,0-3.87,0-6.19l19.35,11.16-19.34,11.17c0-2.26-.11-4.14,0-6s-.57-2.16-2.19-2.12c-3.85.09-7.7,0-11.55.07a4.3,4.3,0,0,0-2.72,1c-3.78,3.87-7.43,7.87-11.36,12.08,3.93,4.21,7.58,8.21,11.35,12.09a4,4,0,0,0,2.55.94c4,.1,7.95,0,11.92.08,1.65,0,2.07-.63,2-2.13-.1-1.86,0-3.73,0-6l19.34,11.16L210.9,239.83c0-2.32-.07-4.26,0-6.2.08-1.45-.49-1.83-1.87-1.8-3.85.08-7.7-.07-11.55.06A9.56,9.56,0,0,1,190,229c-2.91-3-5.7-6.07-8.52-9.12-.69-.74-1.31-1.52-2.12-2.47-.65.7-1.16,1.29-1.72,1.85-3.2,3.2-6.33,6.5-9.66,9.58a11.87,11.87,0,0,1-8.7,3c-4.92-.12-9.85-.08-14.77,0-2.06,0-5.35-1-4.86-3.71.37-2.06,3-2.66,4.75-2.62,5,.11,10,0,14.94.07a6.66,6.66,0,0,0,5.15-1.89q5.06-5.1,9.93-10.37a1.27,1.27,0,0,0,0-1.69q-4.87-5.26-9.93-10.38a6.66,6.66,0,0,0-5.15-1.89c-5,.1-10,0-14.94.07a6,6,0,0,1-3-.6,3.87,3.87,0,0,1-1.19-.94,2.12,2.12,0,0,1-.59-1.41A2.92,2.92,0,0,1,139.61,195.86Z"/><circle cx="68.35" cy="212.21" r="39"/><path d="M55.51,212c0-3.2,0-6.41,0-9.62,0-2.69,1.71-3.76,4.1-2.58,6.56,3.25,13.1,6.54,19.65,9.8a2.69,2.69,0,0,1,0,5.16c-6.51,3.23-13,6.49-19.5,9.72-2.59,1.28-4.22.25-4.24-2.68,0-3.27,0-6.53,0-9.8Zm17.45.17L60.7,206.12v12.22Z" style="fill:#fff"/><path d="M73,212.21,60.7,218.34V206.12Z" style="fill:#fff"/><path d="M428.68,211.6c0-4.61,0-9.23,0-13.84,0-3.87,2.46-5.41,5.88-3.71,9.44,4.67,18.84,9.4,28.27,14.09,1.57.79,2.76,1.78,2.76,3.72s-1.19,2.92-2.76,3.7c-9.36,4.65-18.69,9.34-28.05,14-3.72,1.84-6.06.36-6.1-3.86,0-4.69,0-9.39,0-14.08Zm25.09.24-17.62-8.77v17.58Z"/><path d="M453.77,211.84l-17.62,8.81V203.07Z"/><path d="M473.26,211.6c0-4.61,0-9.23,0-13.84,0-3.87,2.46-5.41,5.89-3.71,9.43,4.67,18.84,9.4,28.26,14.09,1.57.79,2.76,1.78,2.76,3.72s-1.19,2.92-2.76,3.7c-9.36,4.65-18.69,9.34-28.05,14-3.72,1.84-6.06.36-6.1-3.86,0-4.69,0-9.39,0-14.08Zm25.09.24-17.62-8.77v17.58Z"/><path d="M498.35,211.84l-17.62,8.81V203.07Z"/><path d="M402.31,211.6c0,4.69,0,9.39,0,14.08,0,4.22-2.38,5.7-6.1,3.86-9.35-4.64-18.69-9.33-28-14-1.57-.78-2.77-1.77-2.77-3.7s1.19-2.93,2.76-3.72c9.43-4.69,18.83-9.42,28.27-14.09,3.42-1.7,5.84-.16,5.89,3.71.05,4.61,0,9.23,0,13.84Zm-7.45,9.05V203.07l-17.63,8.77Z"/><path d="M377.23,211.84l17.63,8.81V203.07Z"/><path d="M357.73,211.6c0,4.69,0,9.39,0,14.08,0,4.22-2.38,5.7-6.1,3.86-9.35-4.64-18.69-9.33-28-14-1.57-.78-2.77-1.77-2.77-3.7s1.19-2.93,2.76-3.72c9.43-4.69,18.83-9.42,28.27-14.09,3.42-1.7,5.84-.16,5.89,3.71,0,4.61,0,9.23,0,13.84Zm-7.46,9.05V203.07l-17.62,8.77Z"/><path d="M332.65,211.84l17.62,8.81V203.07Z"/><path d="M727.3,215.56c.39.37.8.72,1.17,1.11a1.34,1.34,0,0,1,.33,1.47,1.44,1.44,0,0,1-1.19,1,1.33,1.33,0,0,1-1.2-.39q-1.87-1.86-3.74-3.74a1.39,1.39,0,0,1,0-2q1.83-1.86,3.69-3.69a1.45,1.45,0,0,1,2.08,2c-.37.39-.77.75-1.23,1.2l.44,0h13.59a4.43,4.43,0,0,0,4.57-4.58,5.37,5.37,0,0,1,0-.9,1.47,1.47,0,0,1,2.89.14,7.42,7.42,0,0,1-3.39,7.11,6.83,6.83,0,0,1-3.85,1.16H727.38Z"/><path d="M743.73,199.14c-.38-.37-.77-.72-1.14-1.1a1.34,1.34,0,0,1-.35-1.46,1.46,1.46,0,0,1,1.2-1,1.34,1.34,0,0,1,1.2.4q1.88,1.86,3.74,3.74a1.37,1.37,0,0,1,0,2c-1.24,1.27-2.5,2.52-3.76,3.77a1.41,1.41,0,0,1-2,0,1.39,1.39,0,0,1-.05-2c.37-.4.79-.76,1.19-1.14l-.07-.1h-.32c-4.53,0-9.06,0-13.59,0a4.42,4.42,0,0,0-4.57,4.55,5.26,5.26,0,0,1,0,.89,1.47,1.47,0,0,1-2.9-.11,7.41,7.41,0,0,1,5.18-7.93,8.66,8.66,0,0,1,2.38-.33c4.53,0,9.06,0,13.58,0h.27Z"/><circle cx="735.31" cy="207.33" r="24.5" style="fill:none;stroke:#000;stroke-miterlimit:10;stroke-width:3px"/><path d="M660.3,215.55c.39.37.8.73,1.17,1.11a1.35,1.35,0,0,1,.33,1.47,1.45,1.45,0,0,1-1.19,1,1.34,1.34,0,0,1-1.2-.4c-1.25-1.24-2.5-2.48-3.74-3.74a1.39,1.39,0,0,1,0-2q1.83-1.86,3.69-3.69a1.39,1.39,0,0,1,2,0,1.4,1.4,0,0,1,0,2c-.37.39-.77.75-1.23,1.19l.44,0h13.59a4.43,4.43,0,0,0,4.57-4.58,5.26,5.26,0,0,1,0-.89,1.47,1.47,0,0,1,2.89.14,7.43,7.43,0,0,1-3.39,7.11,6.83,6.83,0,0,1-3.85,1.16H660.38Z"/><path d="M676.73,199.13c-.38-.36-.77-.72-1.14-1.1a1.34,1.34,0,0,1-.35-1.46,1.46,1.46,0,0,1,1.2-1,1.31,1.31,0,0,1,1.2.4c1.25,1.24,2.5,2.48,3.74,3.74a1.37,1.37,0,0,1,0,2c-1.24,1.27-2.5,2.52-3.76,3.76a1.45,1.45,0,0,1-2.07-2c.37-.4.79-.76,1.19-1.13l-.07-.11H662.77a4.42,4.42,0,0,0-4.57,4.55,5.38,5.38,0,0,1,0,.9,1.47,1.47,0,0,1-2.9-.12,7.39,7.39,0,0,1,5.18-7.92,8.29,8.29,0,0,1,2.38-.33c4.53,0,9.06,0,13.58,0h.27Z"/><path d="M605.3,215.56c.39.37.8.72,1.17,1.11a1.34,1.34,0,0,1,.33,1.47,1.44,1.44,0,0,1-1.19,1,1.33,1.33,0,0,1-1.2-.39q-1.87-1.86-3.74-3.74a1.39,1.39,0,0,1,0-2q1.83-1.86,3.69-3.69a1.45,1.45,0,0,1,2.08,2c-.37.39-.77.75-1.23,1.2l.44,0h13.59a4.43,4.43,0,0,0,4.57-4.58,5.37,5.37,0,0,1,0-.9,1.47,1.47,0,0,1,2.89.14,7.42,7.42,0,0,1-3.39,7.11,6.83,6.83,0,0,1-3.85,1.16H605.38Z"/><path d="M621.73,199.14c-.38-.37-.77-.72-1.14-1.1a1.34,1.34,0,0,1-.35-1.46,1.46,1.46,0,0,1,1.2-1,1.34,1.34,0,0,1,1.2.4q1.88,1.86,3.74,3.74a1.37,1.37,0,0,1,0,2c-1.24,1.27-2.5,2.52-3.76,3.77a1.41,1.41,0,0,1-2,0,1.39,1.39,0,0,1-.05-2c.37-.4.79-.76,1.19-1.14l-.07-.1h-.32c-4.53,0-9.06,0-13.59,0a4.42,4.42,0,0,0-4.57,4.55,5.26,5.26,0,0,1,0,.89,1.47,1.47,0,0,1-2.9-.11,7.41,7.41,0,0,1,5.18-7.93,8.66,8.66,0,0,1,2.38-.33c4.53,0,9.06,0,13.58,0h.27Z"/><line x1="668.81" y1="192.84" x2="668.81" y2="221.84" style="fill:none;stroke:#000;stroke-linecap:round;stroke-miterlimit:10;stroke-width:2px"/><path d="M112.42,353.92c0,7.37,0,14.75,0,22.12a4.72,4.72,0,0,1-8.06,3.62q-7.09-6.45-14.18-12.9a2.06,2.06,0,0,0-1.49-.58c-3.69,0-7.38,0-11.06,0a4.87,4.87,0,0,1-5.16-5.16c.11-4.8,0-9.62,0-14.43a4.66,4.66,0,0,1,5-5c3.75,0,7.49,0,11.23,0a2.34,2.34,0,0,0,1.4-.54c4.79-4.31,9.55-8.65,14.33-13a4.69,4.69,0,0,1,8,3.58Q112.44,342.77,112.42,353.92Z"/><path d="M146.8,353.94a36.26,36.26,0,0,1-10,24.89,2.1,2.1,0,0,1-3.14.16,2.26,2.26,0,0,1-.25-3.31,35.11,35.11,0,0,0,5.52-7.93A31,31,0,0,0,134.1,333c-.27-.29-.54-.58-.78-.89a2.35,2.35,0,0,1,.43-3.37,2.15,2.15,0,0,1,3.14.34,36.85,36.85,0,0,1,9.72,20.72c.08.7.15,1.4.18,2.1S146.8,353.26,146.8,353.94Z"/><path d="M137,354a27.53,27.53,0,0,1-7.53,18.62,2.08,2.08,0,0,1-3.07.28,2.34,2.34,0,0,1-.42-3.31c.6-.78,1.29-1.49,1.88-2.28a22.16,22.16,0,0,0-1.11-28.21c-.26-.3-.54-.58-.77-.9a2.49,2.49,0,0,1,1.61-3.85,2.11,2.11,0,0,1,1.94.79A27.93,27.93,0,0,1,137,354Z"/><path d="M127.26,353.82a18.86,18.86,0,0,1-5.08,12.64,2,2,0,0,1-3,.29,2.32,2.32,0,0,1-.57-3.22c.21-.3.47-.56.7-.84a13.32,13.32,0,0,0,0-17.68c-.22-.26-.46-.51-.66-.78a2.32,2.32,0,0,1,.5-3.23,2,2,0,0,1,3.06.21A18.73,18.73,0,0,1,127.26,353.82Z"/><circle cx="75.33" cy="505.09" r="8.66"/><circle cx="95.54" cy="505.09" r="8.66"/><circle cx="115.75" cy="505.09" r="8.66"/><path d="M248.5,527h-5a.38.38,0,0,0-.31.62,3.39,3.39,0,0,0,3.2,1.44,3.26,3.26,0,0,0,2.41-1.48A.39.39,0,0,0,248.5,527Z" style="fill:none"/><path d="M245.16,490.89h1.72a.39.39,0,0,0,.36-.54,1.26,1.26,0,0,0-1.31-.86,1.17,1.17,0,0,0-1.14.91A.38.38,0,0,0,245.16,490.89Z" style="fill:none"/><path d="M265.9,523.94a5.61,5.61,0,0,1-4.33-5.68c0-3.85,0-7.71,0-11.56a16.75,16.75,0,0,0-.51-4.1,5,5,0,0,1-2.6,1.17,12,12,0,0,1,.27,2.26c.06,3.5.07,7,0,10.51-.05,2.46.11,4.83,1.67,6.94a.39.39,0,0,1-.31.62H232a.38.38,0,0,1-.31-.61h0a8.54,8.54,0,0,0,1.65-5.11c0-4,0-7.89,0-11.84a12.72,12.72,0,0,1,13.13-12.8,12.4,12.4,0,0,1,7.13,2.49,5,5,0,0,1,2.15-1.91,16.76,16.76,0,0,0-4.76-2.62c-.28-.1-.65-.45-.66-.7a4.4,4.4,0,0,0-5.12-4.29h0a4,4,0,0,0-3.21,3.33c-.1,1.36-.81,1.66-1.82,2.07a15.44,15.44,0,0,0-9.65,14.34c0,3.94,0,7.88,0,11.82A5.58,5.58,0,0,1,226,524a1.51,1.51,0,0,0,.32,3h13.17a.38.38,0,0,1,.36.26c.13.32.24.64.38,1a6.27,6.27,0,0,0,3.91,3.42,5.28,5.28,0,0,0,.88.18,6.85,6.85,0,0,0,4-.67,6.25,6.25,0,0,0,2-1.56,5.67,5.67,0,0,0,1.14-2.12.66.66,0,0,1,.24-.41.68.68,0,0,1,.32-.06h13.23a1.35,1.35,0,0,0,1.35-1.35h0A1.72,1.72,0,0,0,265.9,523.94ZM244.79,490.4a1.17,1.17,0,0,1,1.14-.91,1.26,1.26,0,0,1,1.31.86.39.39,0,0,1-.36.54h-1.72A.38.38,0,0,1,244.79,490.4Zm4.05,37.17a3.26,3.26,0,0,1-2.41,1.48,3.39,3.39,0,0,1-3.2-1.44.38.38,0,0,1,.31-.62h5A.39.39,0,0,1,248.84,527.57Z"/><path d="M252.81,498.83a5,5,0,0,1,.75-2.61,12.4,12.4,0,0,0-7.13-2.49,12.72,12.72,0,0,0-13.13,12.8c0,4,0,7.89,0,11.84a8.54,8.54,0,0,1-1.65,5.11h0a.38.38,0,0,0,.31.61h28.13a.39.39,0,0,0,.31-.62c-1.56-2.11-1.72-4.48-1.67-6.94.07-3.51.06-7,0-10.51a12,12,0,0,0-.27-2.26c-.21,0-.43.06-.65.06A5,5,0,0,1,252.81,498.83Z"/><circle cx="257.77" cy="498.78" r="4.38"/><path d="M257.91,497.33h0l-.68.36-.1-.4.85-.45h.45v3.89h-.51Z" style="fill:#fff"/><text transform="translate(336.47 95.22)" style="font-size:52.10880661010742px;font-family:MyriadPro-Regular, Myriad Pro"><tspan style="letter-spacing:-0.01098212878452294em">C</tspan><tspan x="29.65" y="0">o</tspan><tspan x="58.26" y="0" style="letter-spacing:-0.004010538498102233em">n</tspan><tspan x="86.97" y="0">t</tspan><tspan x="104.22" y="0" style="letter-spacing:-0.009988864577049023em">r</tspan><tspan x="120.74" y="0">ols</tspan></text><line x1="283.57" y1="660.55" x2="271.43" y2="660.55" style="fill:none;stroke:#000;stroke-linecap:round;stroke-miterlimit:10;stroke-width:0.9890323281288147px"/><line x1="283.55" y1="657.52" x2="271.43" y2="657.51" style="fill:none;stroke:#000;stroke-linecap:round;stroke-miterlimit:10;stroke-width:0.9890323281288147px"/><line x1="283.57" y1="654.46" x2="271.43" y2="654.46" style="fill:none;stroke:#000;stroke-linecap:round;stroke-miterlimit:10;stroke-width:0.9890323281288147px"/><path d="M283.55,650.92V605.5a12,12,0,0,0-12-12H225.82a12,12,0,0,0-12,12v45.73a12,12,0,0,0,12,12h45.73" style="fill:none;stroke:#000;stroke-linecap:round;stroke-linejoin:round"/><path d="M269.9,601.75,238.21,609v8.26h0v27.11a7.87,7.87,0,0,0-6.14.27c-3.53,1.57-5.43,5-4.27,7.62s5,3.52,8.52,2a7.45,7.45,0,0,0,4.52-5.21h0v-.12a4.49,4.49,0,0,0,0-1.32V621l26.34-6.12v22.76a7.79,7.79,0,0,0-6.18.25c-3.53,1.57-5.43,5-4.27,7.62s5,3.52,8.52,2c2.93-1.3,4.72-3.89,4.56-6.24h0V609.68h0Zm-2.68,10.41-26.34,6.13v-1.68l26.34-6.3Z"/><use width="64" height="60.97" transform="translate(754.43 478.83) scale(0.77 0.77)" xlink:href="#Favorite"/><text transform="translate(51.08 164.69)" style="font-size:20.020816802978516px;font-family:MyriadPro-Regular, Myriad Pro"><tspan style="letter-spacing:-0.005024067623706328em">P</tspan><tspan x="10.55" y="0">l</tspan><tspan x="15.28" y="0" style="letter-spacing:-0.007999486313474153em">a</tspan><tspan x="24.77" y="0">y</tspan></text><text transform="translate(72.08 304.69)" style="font-size:20.020816802978516px;font-family:MyriadPro-Regular, Myriad Pro;letter-spacing:-0.03302226972086587em">V<tspan x="10.51" y="0" style="letter-spacing:0.00004877735556996435em">olume</tspan></text><text transform="translate(72.08 472.69)" style="font-size:20.020816802978516px;font-family:MyriadPro-Regular, Myriad Pro"><tspan style="letter-spacing:0.005999614735105616em">M</tspan><tspan x="16.22" y="0">o</tspan><tspan x="27.21" y="0" style="letter-spacing:-0.009999357891842692em">r</tspan><tspan x="33.55" y="0">e</tspan></text><text transform="translate(186.08 583.69)" style="font-size:20.020816802978516px;font-family:MyriadPro-Regular, Myriad Pro">Buy Apple Music</text><text transform="translate(63.08 583.69)" style="font-size:20.020816802978516px;font-family:MyriadPro-Regular, Myriad Pro"><tspan style="letter-spacing:0.005999614735105616em">S</tspan><tspan x="9.99" y="0">ea</tspan><tspan x="29.67" y="0" style="letter-spacing:-0.009999357891842692em">r</tspan><tspan x="36.02" y="0">ch</tspan></text><text transform="translate(196.08 472.69)" style="font-size:20.020816802978516px;font-family:MyriadPro-Regular, Myriad Pro">Notific<tspan x="54.92" y="0" style="letter-spacing:-0.0039997431567370765em">a</tspan><tspan x="64.49" y="0">tions</tspan></text><text transform="translate(365.08 472.69)" style="font-size:20.020816802978516px;font-family:MyriadPro-Regular, Myriad Pro"><tspan style="letter-spacing:0.005999614735105616em">S</tspan><tspan x="9.99" y="0">ettings</tspan></text><text transform="translate(502.08 472.69)" style="font-size:20.020816802978516px;font-family:MyriadPro-Regular, Myriad Pro"><tspan style="letter-spacing:0.0039997431567370765em">R</tspan><tspan x="10.85" y="0">ef</tspan><tspan x="26.73" y="0" style="letter-spacing:-0.009999357891842692em">r</tspan><tspan x="33.07" y="0">esh</tspan></text><text transform="translate(627.08 472.69)" style="font-size:20.020816802978516px;font-family:MyriadPro-Regular, Myriad Pro"><tspan style="letter-spacing:-0.01097490500324198em">C</tspan><tspan x="11.39" y="0">omme</tspan><tspan x="65.81" y="0" style="letter-spacing:-0.0039997431567370765em">n</tspan><tspan x="76.84" y="0" style="letter-spacing:-0.00004877735556996435em">t</tspan></text><text transform="translate(761.08 472.69)" style="font-size:20.020816802978516px;font-family:MyriadPro-Regular, Myriad Pro">Like</text><text transform="translate(668.08 304.69)" style="font-size:20.020816802978516px;font-family:MyriadPro-Regular, Myriad Pro"><tspan style="letter-spacing:-0.005024067623706328em">P</tspan><tspan x="10.55" y="0">l</tspan><tspan x="15.28" y="0" style="letter-spacing:-0.007999486313474153em">a</tspan><tspan x="24.77" y="0">y All</tspan></text><text transform="translate(321.08 304.69)" style="font-size:20.020816802978516px;font-family:MyriadPro-Regular, Myriad Pro">Que All</text><text transform="translate(464.08 304.69)" style="font-size:20.020816802978516px;font-family:MyriadPro-Regular, Myriad Pro">Que One</text><text transform="translate(149.08 164.69)" style="font-size:20.020816802978516px;font-family:MyriadPro-Regular, Myriad Pro">Shuffle</text><text transform="translate(380.08 164.69)" style="font-size:20.020816802978516px;font-family:MyriadPro-Regular, Myriad Pro"><tspan style="letter-spacing:-0.015998972626948306em">P</tspan><tspan x="10.33" y="0" style="letter-spacing:-0.009999357891842692em">r</tspan><tspan x="16.68" y="0">ev </tspan><tspan x="40.58" y="0" style="letter-spacing:-0.03102239814249733em">F</tspan><tspan x="49.71" y="0" style="letter-spacing:0.00004877735556996435em">o</tspan><tspan x="60.7" y="0" style="letter-spacing:0.024974006051821748em">r</tspan><tspan x="67.75" y="0">w</tspan></text><text transform="translate(548.08 164.69)" style="font-size:20.020816802978516px;font-family:MyriadPro-Regular, Myriad Pro"><tspan style="letter-spacing:0.0039997431567370765em">R</tspan><tspan x="10.85" y="0">epe</tspan><tspan x="42.3" y="0" style="letter-spacing:-0.0039997431567370765em">a</tspan><tspan x="51.87" y="0">t 1, no </tspan><tspan x="107.75" y="0" style="letter-spacing:-0.009999357891842692em">r</tspan><tspan x="114.1" y="0">epe</tspan><tspan x="145.55" y="0" style="letter-spacing:-0.0039997431567370765em">a</tspan><tspan x="155.12" y="0">t, </tspan><tspan x="170.13" y="0" style="letter-spacing:-0.009999357891842692em">r</tspan><tspan x="176.48" y="0">epe</tspan><tspan x="207.93" y="0" style="letter-spacing:-0.0039997431567370765em">a</tspan><tspan x="217.5" y="0">t all</tspan></text><path d="M384.29,490.69c.32.1.64.18.95.3,1.43.59,2.86,1.18,4.28,1.8a1.17,1.17,0,0,0,.9,0,2,2,0,0,0,1.36-1.64c.27-1.24.68-2.46,1-3.69a2,2,0,0,1,2.15-1.62h8.12a2,2,0,0,1,2.13,1.63c.42,1.45.82,2.91,1.26,4.36a1.62,1.62,0,0,0,.53.64,1.88,1.88,0,0,0,2.16.07c1.2-.59,2.45-1,3.68-1.57a2,2,0,0,1,2.56.65c1.71,2.13,3.4,4.26,5.1,6.39a2,2,0,0,1,.05,2.68c-.87,1.22-1.72,2.45-2.61,3.65a1.43,1.43,0,0,0-.25,1.23,1.63,1.63,0,0,0,1,1.3c1.28.65,2.54,1.37,3.8,2.07a1.94,1.94,0,0,1,1.07,2.41c-.59,2.64-1.19,5.27-1.8,7.91a2,2,0,0,1-2.13,1.76c-1.55.07-3.1.15-4.64.24a1.74,1.74,0,0,0-1.36,1.76c.28,1.59.55,3.19.82,4.79a1.88,1.88,0,0,1-1,2.09q-3.84,1.88-7.69,3.71a1.87,1.87,0,0,1-2.41-.53q-1.62-1.79-3.19-3.6a1.1,1.1,0,0,0-.77-.36,1.91,1.91,0,0,0-1.89.85c-.86,1.07-1.81,2.07-2.72,3.09a1.93,1.93,0,0,1-2.55.5l-7.4-3.57a1.91,1.91,0,0,1-1.19-2.25c.26-1.6.56-3.19.8-4.79a1.47,1.47,0,0,0-.19-.77,1.88,1.88,0,0,0-1.93-1c-1.39,0-2.78-.12-4.16-.2a1.89,1.89,0,0,1-1.77-1.46q-1-4.15-1.91-8.32a1.91,1.91,0,0,1,1-2.24c1.42-.79,2.84-1.56,4.26-2.34a1.77,1.77,0,0,0,.47-2.09c-.9-1.28-1.82-2.55-2.73-3.83a2,2,0,0,1,0-2.73l5.1-6.39A2.23,2.23,0,0,1,384.29,490.69Zm-2.93,8.74c.93,1.31,1.83,2.59,2.75,3.86a2.15,2.15,0,0,1,.34,2,21.39,21.39,0,0,0-.58,2.49,2.26,2.26,0,0,1-1.24,1.75c-1.24.66-2.47,1.36-3.7,2a.47.47,0,0,0-.29.63c.36,1.52.71,3.05,1,4.57a.54.54,0,0,0,.59.52c1.46,0,2.92.15,4.38.22a1.9,1.9,0,0,1,1.46.76l2,2.46a1.93,1.93,0,0,1,.41,1.65c-.2,1.1-.39,2.21-.58,3.31-.08.46-.33,1-.15,1.34s.78.49,1.21.7l3.75,1.8c1-1.15,2-2.26,3-3.39a2.38,2.38,0,0,1,2.15-.91,14.72,14.72,0,0,0,2.3,0,2.37,2.37,0,0,1,2.12.87c.9,1.05,1.84,2.08,2.75,3.13.19.21.33.3.62.15,1.44-.71,2.88-1.4,4.33-2.09a.47.47,0,0,0,.33-.6c-.27-1.42-.48-2.84-.76-4.26a2.1,2.1,0,0,1,.53-1.87c.59-.71,1.17-1.43,1.73-2.17a2.13,2.13,0,0,1,1.67-.89c1.43-.06,2.85-.16,4.27-.22a.53.53,0,0,0,.59-.51c.33-1.51.66-3,1-4.53a.51.51,0,0,0-.33-.7c-1.24-.66-2.47-1.35-3.7-2a2.18,2.18,0,0,1-1.18-1.67,16.89,16.89,0,0,0-.55-2.44,2.24,2.24,0,0,1,.36-2.16c.91-1.23,1.78-2.49,2.69-3.76-1.11-1.39-2.2-2.77-3.32-4.13a.64.64,0,0,0-.58-.06c-1.32.52-2.64,1.07-3.94,1.63a2.18,2.18,0,0,1-2-.1c-.8-.42-1.62-.81-2.45-1.17a2.14,2.14,0,0,1-1.31-1.45c-.37-1.33-.77-2.66-1.12-4a.49.49,0,0,0-.56-.42c-1.56,0-3.13,0-4.7,0-.38,0-.52.14-.61.49-.35,1.3-.74,2.6-1.1,3.9a2.18,2.18,0,0,1-1.34,1.48,22.1,22.1,0,0,0-2.3,1.11,2.32,2.32,0,0,1-2.24.12c-1.27-.55-2.56-1.08-3.84-1.6-.16-.06-.47-.06-.55,0C383.57,496.64,382.47,498,381.36,499.43Z"/><path d="M399,518.8a8.88,8.88,0,1,1,8.9-8.74A8.91,8.91,0,0,1,399,518.8Zm.07-13.84a5,5,0,1,0,4.94,5A5,5,0,0,0,399.06,505Z"/><path d="M553.45,492.27l3.71-3.78a6.71,6.71,0,0,1,1.1-1c.7-.42,1.27-.31,1.44.61a5.67,5.67,0,0,1,.1,1.09q0,6.58,0,13.15c0,1.56-.4,2-1.95,2-4.46,0-8.93,0-13.39-.06a5.1,5.1,0,0,1-1.6-.59,5.15,5.15,0,0,1,.73-1.55c1.31-1.35,2.71-2.61,4.12-4a15.51,15.51,0,0,0-9.41-6.1,15.77,15.77,0,0,0-18.06,9.37c-.78,1.77-2,2.91-4,2.87a3.51,3.51,0,0,1-3.57-2.49,5,5,0,0,1,0-3.18c3.5-8.3,9.72-13.37,18.64-14.72,8.46-1.27,15.64,1.47,21.5,7.69Z"/><path d="M516.4,523c-1.46,1.48-2.8,2.91-4.24,4.25a5.08,5.08,0,0,1-1.57.68,5.36,5.36,0,0,1-.54-1.54c0-4.54,0-9.09,0-13.63,0-1.4.44-1.81,1.86-1.81,4.5,0,9,0,13.51.06a5.17,5.17,0,0,1,1.59.6,5.1,5.1,0,0,1-.68,1.47c-1.34,1.38-2.76,2.68-4.19,4A15.34,15.34,0,0,0,533,523.46c7.57.76,13.65-2.89,16.72-9.82a4,4,0,0,1,5.43-2.33,4.12,4.12,0,0,1,2,5.6A24,24,0,0,1,517,523.69Z"/><path d="M658.81,538.83V524.3h-1a56.72,56.72,0,0,1-6.66-.22A12.36,12.36,0,0,1,640.63,512q-.12-10.38,0-20.76a12.5,12.5,0,0,1,12.74-12.38c9.93,0,19.86,0,29.79,0h6.48a12.54,12.54,0,0,1,12.73,10.88,12.1,12.1,0,0,1,.11,1.91q0,10,0,19.91a12.52,12.52,0,0,1-10,12.49,15.49,15.49,0,0,1-3,.27c-4.5,0-9,0-13.51,0a1.83,1.83,0,0,0-1.33.5q-7.67,6.86-15.35,13.66C659.17,538.55,659.06,538.63,658.81,538.83ZM687.23,497a4.5,4.5,0,1,0,0,9,4.5,4.5,0,1,0,0-9Zm-31,0a4.5,4.5,0,1,0,4.46,4.5A4.5,4.5,0,0,0,656.25,497Zm15.45,9a4.5,4.5,0,1,0-4.49-4.54A4.53,4.53,0,0,0,671.7,506Z"/><path d="M80.47,636.27a20.22,20.22,0,1,1,20.19-20.16A20.24,20.24,0,0,1,80.47,636.27Zm0-5.28a14.94,14.94,0,1,0-14.93-15A15,15,0,0,0,80.46,631Z"/><path d="M92.86,634.43a22.39,22.39,0,0,0,6-6c1.09,1.11,2.14,2.19,3.21,3.26l12.79,12.81a4.23,4.23,0,1,1-5.94,6L93.17,634.75Z"/><path d="M93,615.54V616a1.59,1.59,0,1,1-3.17,0,9.58,9.58,0,0,0-.64-3.35,9.32,9.32,0,0,0-4.53-5,2.65,2.65,0,0,1-.76-.55,1.57,1.57,0,0,1,1.93-2.4A12.61,12.61,0,0,1,93,615.54Z"/><path d="M78.88,605.12a1.56,1.56,0,0,1,1.55-1.59,1.59,1.59,0,0,1,1.62,1.6,1.62,1.62,0,0,1-1.59,1.57A1.58,1.58,0,0,1,78.88,605.12Z"/></g></g></svg>